<svg width="16" height="11" viewBox="0 0 16 11" fill="none" xmlns="http://www.w3.org/2000/svg">
<path d="M2.88164 10.6172C1.66875 10.6172 0.854297 9.88477 0.854297 8.77734V8.76562C0.854297 7.72852 1.66289 7.07812 3.06328 6.99609L4.80937 6.89648V6.38672C4.80937 5.64258 4.32305 5.19141 3.47344 5.19141C2.68828 5.19141 2.19609 5.56641 2.07891 6.11133L2.06719 6.16406H1.08281L1.08867 6.09961C1.17656 5.09766 2.04961 4.28906 3.48516 4.28906C4.92656 4.28906 5.82891 5.06836 5.82891 6.28711V10.5H4.80937V9.50977H4.78594C4.42852 10.1777 3.69609 10.6172 2.88164 10.6172ZM1.89727 8.77734C1.89727 9.36328 2.37773 9.73242 3.11016 9.73242C4.07109 9.73242 4.80937 9.07031 4.80937 8.18555V7.6875L3.18047 7.78711C2.36602 7.83398 1.89727 8.19727 1.89727 8.76562V8.77734ZM10.5949 10.6953C8.57344 10.6953 7.21602 9.47461 7.21602 7.62891V7.60938C7.21602 5.88086 8.56367 4.79688 10.8977 4.66016L13.8078 4.49414V3.64453C13.8078 2.4043 12.9973 1.65234 11.5812 1.65234C10.2727 1.65234 9.45234 2.27734 9.25703 3.18555L9.2375 3.27344H7.59687L7.60664 3.16602C7.75312 1.49609 9.2082 0.148438 11.6008 0.148438C14.0031 0.148438 15.507 1.44727 15.507 3.47852V10.5H13.8078V8.84961H13.7687C13.173 9.96289 11.9523 10.6953 10.5949 10.6953ZM8.9543 7.62891C8.9543 8.60547 9.75508 9.2207 10.9758 9.2207C12.5773 9.2207 13.8078 8.11719 13.8078 6.64258V5.8125L11.093 5.97852C9.73555 6.05664 8.9543 6.66211 8.9543 7.60938V7.62891Z" fill="#666666"/>
</svg>
