<svg width="16" height="18" viewBox="0 0 16 18" fill="none" xmlns="http://www.w3.org/2000/svg">
<path d="M0.208889 7.73272C-0.0767977 8.03264 -0.0652543 8.50738 0.234672 8.79306C0.534599 9.07875 1.00933 9.06721 1.29502 8.76728L7.24963 2.51587L7.24963 17.25C7.24963 17.6642 7.58542 18 7.99963 18C8.41385 18 8.74963 17.6642 8.74963 17.25L8.74963 2.51577L14.7043 8.76728C14.99 9.06721 15.4648 9.07875 15.7647 8.79306C16.0646 8.50738 16.0762 8.03264 15.7905 7.73272L8.72377 0.313785C8.56286 0.144865 8.35763 0.0449158 8.14427 0.0139347C8.09747 0.00479091 8.04911 -3.51752e-07 7.99963 -3.4959e-07C7.95006 -3.47423e-07 7.90162 0.00480617 7.85473 0.0139843C7.6415 0.0450245 7.4364 0.14496 7.27559 0.313785L0.208889 7.73272Z" fill="white"/>
</svg>
