<svg width="24" height="22" viewBox="0 0 24 22" fill="none" xmlns="http://www.w3.org/2000/svg">
<path fill-rule="evenodd" clip-rule="evenodd" d="M15.4267 1.39695L18.2091 5.65234H22.5C22.7228 5.65234 22.8307 5.72223 22.8804 5.77195C22.9301 5.82167 23 5.92959 23 6.15234V19.6523C23 19.8751 22.9301 19.983 22.8804 20.0327C22.8307 20.0825 22.7228 20.1523 22.5 20.1523H1.5C1.27725 20.1523 1.16933 20.0825 1.11961 20.0327C1.06989 19.983 1 19.8751 1 19.6523V6.15234C1 5.92959 1.06989 5.82167 1.11961 5.77195C1.16933 5.72223 1.27725 5.65234 1.5 5.65234H5.79094L8.57329 1.39695C8.65263 1.32621 8.73911 1.26327 8.82258 1.21775C8.93381 1.15708 8.99283 1.15234 9 1.15234H15C15.0072 1.15234 15.0662 1.15707 15.1774 1.21773C15.2579 1.26166 15.3413 1.3218 15.4183 1.38953C15.4211 1.39199 15.4239 1.39446 15.4267 1.39695ZM7.79997 0.752344C7.83406 0.718257 7.87008 0.684167 7.90782 0.65052C7.92341 0.636621 7.93937 0.622731 7.95568 0.608891C8.06984 0.51201 8.20121 0.417582 8.34373 0.339845C8.55158 0.226478 8.77633 0.152344 9 0.152344H15C15.2237 0.152344 15.4484 0.226476 15.6562 0.339844C15.8191 0.42869 15.9674 0.539336 16.0922 0.650535C16.1299 0.684177 16.1659 0.718262 16.2 0.752344L18.75 4.65234H22.5C22.9546 4.65234 23.3279 4.80522 23.5875 5.06484C23.8471 5.32447 24 5.69778 24 6.15234V19.6523C24 20.1069 23.8471 20.4802 23.5875 20.7398C23.3279 20.9995 22.9546 21.1523 22.5 21.1523H1.5C1.04543 21.1523 0.672126 20.9995 0.412499 20.7398C0.152876 20.4802 0 20.1069 0 19.6523V6.15234C0 5.70234 0.150001 5.32734 0.4125 5.06484C0.547712 4.92963 0.713759 4.82337 0.906062 4.75258C1.05992 4.69594 1.2306 4.66201 1.41573 4.65412C1.4435 4.65294 1.47159 4.65234 1.5 4.65234H5.25L7.79997 0.752344ZM7.5 12.1523C7.5 14.7023 9.45 16.6523 12 16.6523C14.55 16.6523 16.5 14.7023 16.5 12.1523C16.5 9.60234 14.55 7.65234 12 7.65234C9.45 7.65234 7.5 9.60234 7.5 12.1523ZM12 17.6523C8.89771 17.6523 6.5 15.2546 6.5 12.1523C6.5 9.05006 8.89771 6.65234 12 6.65234C15.1023 6.65234 17.5 9.05006 17.5 12.1523C17.5 15.2546 15.1023 17.6523 12 17.6523Z" fill="black"/>
</svg>
