<svg width="18" height="15" viewBox="0 0 18 15" fill="none" xmlns="http://www.w3.org/2000/svg">
<path d="M16.425 6.762C16.328 6.74448 16.2286 6.74624 16.1323 6.76718C16.036 6.78812 15.9448 6.82783 15.8638 6.88404C15.7829 6.94024 15.7138 7.01185 15.6606 7.09476C15.6073 7.17768 15.5709 7.27027 15.5535 7.36725L15.4575 7.899C15.3639 8.41824 15.0909 8.88809 14.686 9.22644C14.2812 9.56478 13.7704 9.7501 13.2427 9.75H4.0635L3.3585 3.75H8.25C8.44891 3.75 8.63968 3.67098 8.78033 3.53033C8.92098 3.38968 9 3.19891 9 3C9 2.80109 8.92098 2.61032 8.78033 2.46967C8.63968 2.32902 8.44891 2.25 8.25 2.25H3.1815L3.15 1.986C3.08537 1.43895 2.82229 0.934615 2.41064 0.568578C1.99899 0.202541 1.46736 0.000234627 0.9165 0L0.75 0C0.551088 0 0.360322 0.0790176 0.21967 0.21967C0.0790176 0.360322 0 0.551088 0 0.75C0 0.948912 0.0790176 1.13968 0.21967 1.28033C0.360322 1.42098 0.551088 1.5 0.75 1.5H0.9165C1.1002 1.50002 1.2775 1.56747 1.41478 1.68954C1.55206 1.81161 1.63976 1.97981 1.66125 2.16225L2.69325 10.9373C2.80039 11.8498 3.23886 12.6913 3.92543 13.302C4.612 13.9127 5.49889 14.25 6.41775 14.25H14.25C14.4489 14.25 14.6397 14.171 14.7803 14.0303C14.921 13.8897 15 13.6989 15 13.5C15 13.3011 14.921 13.1103 14.7803 12.9697C14.6397 12.829 14.4489 12.75 14.25 12.75H6.41775C5.95239 12.7501 5.49845 12.6059 5.11846 12.3372C4.73847 12.0686 4.45112 11.6887 4.296 11.25H13.2427C14.122 11.2501 14.9733 10.9412 15.6479 10.3773C16.3225 9.81348 16.7775 9.03052 16.9335 8.16525L17.0295 7.63275C17.0647 7.43713 17.0208 7.23555 16.9074 7.07229C16.7941 6.90902 16.6206 6.79742 16.425 6.762Z" fill="white"/>
</svg>
