<svg width="12" height="18" viewBox="0 0 12 18" fill="none" xmlns="http://www.w3.org/2000/svg">
<path d="M7.449 3C8.05908 3.0006 8.644 3.24321 9.0754 3.67461C9.50679 4.106 9.7494 4.69092 9.75 5.301C9.75 5.49991 9.82902 5.69068 9.96967 5.83133C10.1103 5.97198 10.3011 6.051 10.5 6.051C10.6989 6.051 10.8897 5.97198 11.0303 5.83133C11.171 5.69068 11.25 5.49991 11.25 5.301V5.25C11.25 5.23575 11.25 5.223 11.25 5.20875C11.225 4.21705 10.8136 3.27434 10.1036 2.58154C9.39355 1.88875 8.44102 1.50066 7.449 1.5H6.75V0.75C6.75 0.551088 6.67098 0.360322 6.53033 0.21967C6.38968 0.0790176 6.19891 0 6 0C5.80109 0 5.61032 0.0790176 5.46967 0.21967C5.32902 0.360322 5.25 0.551088 5.25 0.75V1.5H4.551C3.64899 1.50096 2.77672 1.82268 2.0901 2.40763C1.40347 2.99259 0.947257 3.80267 0.80299 4.69307C0.658722 5.58347 0.835808 6.49615 1.30259 7.26799C1.76938 8.03983 2.49544 8.62052 3.351 8.90625L5.25 9.54V15H4.551C3.94092 14.9994 3.356 14.7568 2.92461 14.3254C2.49321 13.894 2.2506 13.3091 2.25 12.699C2.25 12.5001 2.17098 12.3093 2.03033 12.1687C1.88968 12.028 1.69891 11.949 1.5 11.949C1.30109 11.949 1.11032 12.028 0.96967 12.1687C0.829018 12.3093 0.75 12.5001 0.75 12.699V12.75C0.75 12.7642 0.75 12.777 0.75 12.7913C0.77503 13.783 1.1864 14.7257 1.89642 15.4185C2.60645 16.1113 3.55898 16.4993 4.551 16.5H5.25V17.25C5.25 17.4489 5.32902 17.6397 5.46967 17.7803C5.61032 17.921 5.80109 18 6 18C6.19891 18 6.38968 17.921 6.53033 17.7803C6.67098 17.6397 6.75 17.4489 6.75 17.25V16.5H7.449C8.35101 16.499 9.22328 16.1773 9.9099 15.5924C10.5965 15.0074 11.0527 14.1973 11.197 13.3069C11.3413 12.4165 11.1642 11.5038 10.6974 10.732C10.2306 9.96017 9.50456 9.37948 8.649 9.09375L6.75 8.46V3H7.449ZM8.1765 10.5157C8.69507 10.6883 9.13527 11.0399 9.41829 11.5074C9.70132 11.975 9.80868 12.528 9.72115 13.0675C9.63363 13.607 9.35694 14.0977 8.94062 14.4518C8.5243 14.8059 7.99554 15.0002 7.449 15H6.75V10.0403L8.1765 10.5157ZM5.25 7.95975L3.825 7.48425C3.30655 7.3117 2.86643 6.96028 2.5834 6.49289C2.30037 6.0255 2.1929 5.47264 2.28023 4.93326C2.36755 4.39387 2.64397 3.90317 3.06002 3.54896C3.47607 3.19475 4.00459 3.00015 4.551 3H5.25V7.95975Z" fill="white"/>
</svg>
