<svg width="30" height="28" viewBox="0 0 30 28" fill="none" xmlns="http://www.w3.org/2000/svg">
<path d="M0 28V18.7963C0 15.2531 0.481482 11.9691 1.44444 8.94445C2.48148 5.91975 4.22222 2.93827 6.66667 0L11 3.75926C9.07407 6.26543 7.74074 8.55555 7 10.6296C6.33333 12.6173 6 14.7346 6 16.9815L3.33333 14.7778H11.3333V28H0ZM18.6667 28V18.7963C18.6667 15.2531 19.1481 11.9691 20.1111 8.94445C21.1481 5.91975 22.8889 2.93827 25.3333 0L29.6667 3.75926C27.7407 6.26543 26.4074 8.55555 25.6667 10.6296C25 12.6173 24.6667 14.7346 24.6667 16.9815L22 14.7778H30V28H18.6667Z" fill="#FFEFD7"/>
</svg>
