<svg width="15" height="15" viewBox="0 0 15 15" fill="none" xmlns="http://www.w3.org/2000/svg">
<path d="M14.375 1.25H0.625C0.25 1.25 0 1.5 0 1.875V13.125C0 13.5 0.25 13.75 0.625 13.75H14.375C14.75 13.75 15 13.5 15 13.125V1.875C15 1.5 14.75 1.25 14.375 1.25ZM12.9375 4.25L7.9375 8.625C7.8125 8.6875 7.625 8.75 7.5 8.75C7.375 8.75 7.1875 8.6875 7.0625 8.625L2.0625 4.25C1.8125 4 1.75 3.625 2 3.375C2.25 3.125 2.625 3.0625 2.875 3.3125L7.4375 7.3125L12 3.3125C12.25 3.0625 12.625 3.125 12.875 3.375C13.1875 3.625 13.1875 4 12.9375 4.25Z" fill="#4F4F4F"/>
</svg>
