<svg width="15" height="13" viewBox="0 0 15 13" fill="none" xmlns="http://www.w3.org/2000/svg">
<path d="M14.375 0.25H0.625C0.25 0.25 0 0.5 0 0.875V12.125C0 12.5 0.25 12.75 0.625 12.75H14.375C14.75 12.75 15 12.5 15 12.125V0.875C15 0.5 14.75 0.25 14.375 0.25ZM12.9375 3.25L7.9375 7.625C7.8125 7.6875 7.625 7.75 7.5 7.75C7.375 7.75 7.1875 7.6875 7.0625 7.625L2.0625 3.25C1.8125 3 1.75 2.625 2 2.375C2.25 2.125 2.625 2.0625 2.875 2.3125L7.4375 6.3125L12 2.3125C12.25 2.0625 12.625 2.125 12.875 2.375C13.1875 2.625 13.1875 3 12.9375 3.25Z" fill="#4F4F4F"/>
</svg>
