<svg width="23" height="20" viewBox="0 0 23 20" fill="none" xmlns="http://www.w3.org/2000/svg">
<path d="M21.6834 11.6141H17.7107V9.53594C17.7107 9.49219 17.7219 9.45391 17.7219 9.41016C19.7418 9.20234 20.9001 7.90625 20.9001 5.77344V5.28125C20.9001 4.98047 20.6483 4.73438 20.3405 4.73438C20.0328 4.73438 19.781 4.98047 19.781 5.28125V5.77344C19.781 7.34844 19.0648 8.18516 17.6044 8.32188C17.347 7.21172 16.7259 6.25469 15.6908 6.03594C15.5341 4.86563 14.79 3.87578 13.7548 3.36172C14.1857 2.92969 14.4654 2.33906 14.4654 1.68828V1.20703C14.4654 0.90625 14.2136 0.660156 13.9059 0.660156C13.5981 0.660156 13.3464 0.90625 13.3464 1.20703V1.69375C13.3464 2.40469 12.7421 2.97344 12.0091 2.97344H11.0411C10.3137 2.97344 9.70379 2.41016 9.70379 1.69375V1.20703C9.70379 0.90625 9.452 0.660156 9.14425 0.660156C8.83651 0.660156 8.58472 0.90625 8.58472 1.20703V1.69375C8.58472 2.34453 8.85889 2.93516 9.29533 3.36719C8.26019 3.88125 7.51601 4.87109 7.35934 6.04141C6.3242 6.26016 5.70312 7.22266 5.45133 8.33281C3.94618 8.20703 3.21879 7.37031 3.21879 5.77344V5.28125C3.21879 4.98047 2.967 4.73438 2.65925 4.73438C2.35151 4.73438 2.09972 4.98047 2.09972 5.28125V5.77344C2.09972 7.92266 3.25236 9.22422 5.30585 9.41563C5.30585 9.45391 5.28906 9.49766 5.28906 9.53594V11.6141H1.31637C1.00863 11.6141 0.756836 11.8602 0.756836 12.1609C0.756836 12.4617 1.00863 12.7078 1.31637 12.7078H5.28906V13.6539C5.28906 14.0914 5.35061 14.5125 5.44014 14.9227C3.30272 15.0594 2.09972 16.3719 2.09972 18.5703V19.0625C2.09972 19.3633 2.35151 19.6094 2.65925 19.6094C2.967 19.6094 3.21879 19.3633 3.21879 19.0625V18.5703C3.21879 16.8586 4.06368 16.0164 5.80383 16C6.74385 18.182 8.95961 19.7188 11.5279 19.7188C14.1017 19.7188 16.3119 18.182 17.2519 16C18.9529 16.0328 19.781 16.875 19.781 18.5703V19.0625C19.781 19.3633 20.0328 19.6094 20.3405 19.6094C20.6483 19.6094 20.9001 19.3633 20.9001 19.0625V18.5703C20.9001 16.3938 19.6915 15.0812 17.5876 14.9227C17.6771 14.5125 17.7107 14.0859 17.7107 13.6484V12.7023H21.6834C21.9912 12.7023 22.2429 12.4563 22.2429 12.1555C22.2429 11.8547 21.9912 11.6141 21.6834 11.6141ZM10.9404 18.5922C8.40567 18.3078 6.40813 16.1969 6.40813 13.6484V9.53047C6.40813 8.67734 6.69909 7.45781 7.43767 7.15156C7.71744 7.90625 8.46722 8.43672 9.33449 8.43672H10.9404V18.5922ZM9.3289 7.34844C8.8421 7.34844 8.44483 6.96016 8.44483 6.48438C8.44483 5.15 9.55831 4.06172 10.9236 4.06172H12.1266C13.4918 4.06172 14.6053 5.15 14.6053 6.48438C14.6053 6.96016 14.208 7.34844 13.7212 7.34844H9.3289ZM16.5917 13.6484C16.5917 16.2188 14.6165 18.3352 12.0594 18.5977V8.44219H13.7268C14.5941 8.44219 15.3159 7.90625 15.5957 7.15703C16.3343 7.46328 16.5972 8.68281 16.5972 9.53594V13.6484H16.5917Z" fill="#868686"/>
</svg>
