<svg width="16" height="10" viewBox="0 0 16 10" fill="none" xmlns="http://www.w3.org/2000/svg">
<path d="M15.2213 4.63016C15.104 4.45483 12.3073 0.333496 8 0.333496C3.67067 0.333496 0.893338 4.45683 0.777338 4.63216C0.629338 4.8555 0.629338 5.14616 0.778671 5.3695C0.896004 5.5455 3.69267 9.66683 8 9.66683C12.2853 9.66683 15.102 5.5475 15.22 5.37216C15.3707 5.14816 15.3713 4.85483 15.2213 4.63016ZM8 8.3335C5.1 8.3335 2.91 5.93616 2.16467 4.99883C2.60334 4.44416 3.548 3.38216 4.84734 2.6055C4.73334 2.93883 4.66667 3.29416 4.66667 3.66683C4.66667 5.50483 6.162 7.00016 8 7.00016C9.838 7.00016 11.3333 5.50483 11.3333 3.66683C11.3333 3.29683 11.2673 2.9435 11.1547 2.61216C12.448 3.38816 13.3927 4.4455 13.8333 4.9995C13.082 5.93816 10.8827 8.3335 8 8.3335Z" fill="#C0C0C0"/>
</svg>
