<svg width="20" height="20" viewBox="0 0 20 20" fill="none" xmlns="http://www.w3.org/2000/svg">
<path d="M16.6667 5.83333H15.2183C15.6895 5.418 16.0635 4.90407 16.3138 4.328C16.5641 3.75193 16.6846 3.12784 16.6667 2.5C16.6667 2.27899 16.5789 2.06702 16.4226 1.91074C16.2663 1.75446 16.0543 1.66667 15.8333 1.66667C15.6123 1.66667 15.4004 1.75446 15.2441 1.91074C15.0878 2.06702 15 2.27899 15 2.5C15 4.685 13.0242 5.44167 11.5217 5.70083C12.0762 4.71755 12.4101 3.62531 12.5 2.5C12.5 1.83696 12.2366 1.20107 11.7678 0.732233C11.2989 0.263392 10.663 0 10 0C9.33696 0 8.70107 0.263392 8.23223 0.732233C7.76339 1.20107 7.5 1.83696 7.5 2.5C7.58992 3.62531 7.92376 4.71755 8.47833 5.70083C6.97583 5.44167 5 4.685 5 2.5C5 2.27899 4.9122 2.06702 4.75592 1.91074C4.59964 1.75446 4.38768 1.66667 4.16667 1.66667C3.94565 1.66667 3.73369 1.75446 3.57741 1.91074C3.42113 2.06702 3.33333 2.27899 3.33333 2.5C3.31543 3.12784 3.4359 3.75193 3.6862 4.328C3.9365 4.90407 4.3105 5.418 4.78167 5.83333H3.33333C2.44928 5.83333 1.60143 6.18452 0.976311 6.80964C0.35119 7.43476 0 8.28261 0 9.16667L0 10C0 10.442 0.175595 10.8659 0.488155 11.1785C0.800716 11.4911 1.22464 11.6667 1.66667 11.6667V15.8333C1.66799 16.938 2.1074 17.997 2.88852 18.7782C3.66963 19.5593 4.72867 19.9987 5.83333 20H14.1667C15.2713 19.9987 16.3304 19.5593 17.1115 18.7782C17.8926 17.997 18.332 16.938 18.3333 15.8333V11.6667C18.7754 11.6667 19.1993 11.4911 19.5118 11.1785C19.8244 10.8659 20 10.442 20 10V9.16667C20 8.28261 19.6488 7.43476 19.0237 6.80964C18.3986 6.18452 17.5507 5.83333 16.6667 5.83333ZM10 1.66667C10.221 1.66667 10.433 1.75446 10.5893 1.91074C10.7455 2.06702 10.8333 2.27899 10.8333 2.5C10.7327 3.38569 10.4489 4.24076 10 5.01083C9.55106 4.24076 9.26726 3.38569 9.16667 2.5C9.16667 2.27899 9.25446 2.06702 9.41074 1.91074C9.56702 1.75446 9.77899 1.66667 10 1.66667ZM1.66667 9.16667C1.66667 8.72464 1.84226 8.30072 2.15482 7.98816C2.46738 7.67559 2.89131 7.5 3.33333 7.5H9.16667V10H1.66667V9.16667ZM3.33333 15.8333V11.6667H9.16667V18.3333H5.83333C5.17029 18.3333 4.53441 18.0699 4.06557 17.6011C3.59673 17.1323 3.33333 16.4964 3.33333 15.8333ZM16.6667 15.8333C16.6667 16.4964 16.4033 17.1323 15.9344 17.6011C15.4656 18.0699 14.8297 18.3333 14.1667 18.3333H10.8333V11.6667H16.6667V15.8333ZM10.8333 10V7.5H16.6667C17.1087 7.5 17.5326 7.67559 17.8452 7.98816C18.1577 8.30072 18.3333 8.72464 18.3333 9.16667V10H10.8333Z" fill="white"/>
</svg>
