<svg width="20" height="18" viewBox="0 0 20 18" fill="none" xmlns="http://www.w3.org/2000/svg">
<path fill-rule="evenodd" clip-rule="evenodd" d="M2.03281 4.92459L1.9905 4.95877C2.27043 5.30219 2.38599 5.70745 2.33879 6.17293C2.29159 6.63841 2.09466 7.01112 1.75125 7.29106L1.78542 7.33337C2.12884 7.05343 2.5341 6.93788 2.99958 6.9867C5.09587 7.2048 3.59689 8.41895 3.81173 6.32429C3.85893 5.85881 4.05586 5.4861 4.39927 5.20616L4.36509 5.16384C4.02168 5.44378 3.61642 5.55934 3.15094 5.51214C2.68546 5.46331 2.31275 5.26801 2.03281 4.92459ZM5.08773 10.8196L6.52974 5.74325C6.58182 5.55771 6.75109 5.43565 6.935 5.43565H13.0855C13.2906 5.43565 13.4599 5.58213 13.4989 5.77418L14.98 10.844C15.0451 11.067 14.9165 11.2997 14.6935 11.3648C14.6545 11.3762 14.6154 11.3811 14.5764 11.3811V11.3827H5.48485C5.25211 11.3827 5.06331 11.1939 5.06331 10.9612C5.06331 10.9107 5.07145 10.8635 5.08773 10.8196ZM10.0908 17.1703L11.5328 12.094C11.5849 11.9084 11.7542 11.7864 11.9381 11.7864H18.0886C18.2937 11.7864 18.4629 11.9328 18.502 12.1249L19.9831 17.1947C20.0482 17.4177 19.9196 17.6504 19.6966 17.7155C19.6576 17.7269 19.6185 17.7318 19.5795 17.7318V17.7334H10.4879C10.2552 17.7334 10.0664 17.5446 10.0664 17.3119C10.0664 17.2631 10.0745 17.2159 10.0908 17.1703ZM12.2555 12.6294L11.0462 16.8904H19.0196L17.7745 12.6294H12.2555ZM0.0244133 17.1703L1.46642 12.094C1.51851 11.9084 1.68777 11.7864 1.87168 11.7864H8.0222C8.22727 11.7864 8.39654 11.9328 8.4356 12.1249L9.91667 17.1947C9.98178 17.4177 9.8532 17.6504 9.63022 17.7155C9.59116 17.7269 9.5521 17.7318 9.51304 17.7318V17.7334H0.421536C0.188796 17.7334 0 17.5446 0 17.3119C0 17.2631 0.00813776 17.2159 0.0244133 17.1703ZM2.18906 12.6294L0.979786 16.8904H8.95154L7.70646 12.6294H2.18906ZM7.25237 6.27872L6.0431 10.5396H14.0165L12.7714 6.27872H7.25237ZM7.21168 0.266541L7.16937 0.300719C7.44931 0.644133 7.56486 1.04939 7.51766 1.51487C7.47046 1.98035 7.27353 2.35306 6.93012 2.633L6.96429 2.67532C7.30771 2.39538 7.71297 2.27982 8.18008 2.32865C8.64718 2.37748 9.01989 2.57278 9.2982 2.91457L9.34052 2.88039C9.06058 2.53698 8.94503 2.13172 8.99222 1.66624C9.03942 1.20076 9.23636 0.828046 9.57977 0.548107L9.54559 0.505791C9.20218 0.78573 8.79692 0.901286 8.33144 0.854087C7.86433 0.80526 7.49162 0.609954 7.21168 0.266541ZM14.0995 0.642505L14.023 0.70598C14.534 1.33421 14.7472 2.07475 14.6594 2.92759C14.5715 3.78043 14.2134 4.46237 13.5852 4.97342L13.6487 5.04992C14.2769 4.53886 15.0174 4.32566 15.8719 4.41517C16.7247 4.50306 17.4067 4.86275 17.9177 5.48936L17.9942 5.42588C17.4832 4.79765 17.27 4.05711 17.3578 3.20427C17.4457 2.35143 17.8038 1.66949 18.432 1.15844L18.3669 1.08032C17.7387 1.59137 16.9982 1.80458 16.1453 1.71669C15.2925 1.6288 14.6105 1.27074 14.0995 0.642505Z" fill="#E5B32E"/>
</svg>
