<svg width="16" height="16" viewBox="0 0 16 16" fill="none" xmlns="http://www.w3.org/2000/svg">
<path d="M10.9546 15.9626H12.9546C13.5546 15.9626 13.9546 15.5626 13.9546 14.9626V7.9626H14.9546C15.2546 7.9626 15.5546 7.8626 15.7546 7.6626C16.1546 7.2626 16.0546 6.6626 15.6546 6.2626L8.65464 0.262598C8.25464 -0.0374023 7.75464 -0.0374023 7.35464 0.262598L0.35464 6.2626C-0.0453602 6.6626 -0.14536 7.2626 0.25464 7.6626C0.35464 7.8626 0.65464 7.9626 0.95464 7.9626H1.95464V14.9626C1.95464 15.5626 2.35464 15.9626 2.95464 15.9626H4.95464C5.55464 15.9626 5.95464 15.5626 5.95464 14.9626V11.9626H9.95464V14.9626C9.95464 15.5626 10.3546 15.9626 10.9546 15.9626Z" fill="#B80000"/>
</svg>
