<svg width="18" height="18" viewBox="0 0 18 18" fill="none" xmlns="http://www.w3.org/2000/svg">
<g clip-path="url(#clip0_7_5013)">
<path d="M16.8747 2.98193H14.5602C14.4119 2.98197 14.2669 3.02597 14.1436 3.10838C14.0203 3.1908 13.9242 3.30792 13.8674 3.44494C13.8107 3.58197 13.7958 3.73274 13.8247 3.87821C13.8537 4.02367 13.9251 4.15729 14.0299 4.26218L14.8444 5.07668L12.1549 7.76543C12.012 7.90201 11.822 7.97822 11.6243 7.97822C11.4266 7.97822 11.2366 7.90201 11.0937 7.76543L10.9662 7.63718C10.5376 7.22774 9.96775 6.99925 9.37505 6.99925C8.78235 6.99925 8.21246 7.22774 7.78392 7.63718L3.95892 11.4622C3.81799 11.6035 3.73898 11.795 3.73926 11.9946C3.73954 12.1942 3.81909 12.3855 3.96042 12.5264C4.10175 12.6674 4.29327 12.7464 4.49286 12.7461C4.69244 12.7458 4.88374 12.6663 5.02467 12.5249L8.84967 8.69993C8.99248 8.56319 9.18257 8.48686 9.3803 8.48686C9.57802 8.48686 9.76811 8.56319 9.91092 8.69993L10.0384 8.82818C10.4671 9.23729 11.037 9.46554 11.6295 9.46554C12.2221 9.46554 12.792 9.23729 13.2207 8.82818L15.9102 6.13868L16.7247 6.95318C16.8299 7.05635 16.9632 7.12622 17.1079 7.15407C17.2526 7.18192 17.4024 7.16652 17.5384 7.1098C17.6744 7.05307 17.7907 6.95753 17.8727 6.83511C17.9548 6.71268 17.9989 6.5688 17.9997 6.42143V4.10693C17.9997 3.80856 17.8811 3.52242 17.6702 3.31144C17.4592 3.10046 17.173 2.98193 16.8747 2.98193Z" fill="white"/>
<path d="M17.25 16.482H3.75C3.15326 16.482 2.58097 16.2449 2.15901 15.823C1.73705 15.401 1.5 14.8287 1.5 14.232V0.75C1.5 0.551088 1.42098 0.360322 1.28033 0.21967C1.13968 0.0790176 0.948912 0 0.75 0C0.551088 0 0.360322 0.0790176 0.21967 0.21967C0.0790176 0.360322 0 0.551088 0 0.75L0 14.232C0.00119089 15.2262 0.396661 16.1793 1.09966 16.8823C1.80267 17.5853 2.7558 17.9808 3.75 17.982H17.25C17.4489 17.982 17.6397 17.903 17.7803 17.7623C17.921 17.6217 18 17.4309 18 17.232C18 17.0331 17.921 16.8423 17.7803 16.7017C17.6397 16.561 17.4489 16.482 17.25 16.482Z" fill="white"/>
</g>
<defs>
<clipPath id="clip0_7_5013">
<rect width="18" height="18" fill="white"/>
</clipPath>
</defs>
</svg>
