<svg width="16" height="16" viewBox="0 0 16 16" fill="none" xmlns="http://www.w3.org/2000/svg">
<path d="M11.38 0H4.61996C2.07219 0 0 2.07219 0 4.61996V11.38C0 13.9278 2.07219 16 4.61996 16H11.38C13.9278 16 16 13.9278 16 11.38V4.61996C16 2.06087 13.9278 0 11.38 0ZM14.528 11.4933C14.528 13.1805 13.1578 14.5619 11.4593 14.5619H4.54069C2.8535 14.5619 1.47205 13.1918 1.47205 11.4933V4.57467C1.47205 2.88748 2.84218 1.50602 4.54069 1.50602H11.4593C13.1465 1.50602 14.528 2.87615 14.528 4.57467V11.4933Z" fill="#fff"/>
<path d="M8.00566 3.88394C5.71833 3.88394 3.86129 5.74098 3.86129 8.02831C3.86129 10.3156 5.71833 12.1727 8.00566 12.1727C10.293 12.1727 12.15 10.3156 12.15 8.02831C12.15 5.74098 10.293 3.88394 8.00566 3.88394ZM8.00566 10.7233C6.52229 10.7233 5.31069 9.523 5.31069 8.02831C5.31069 6.54494 6.51097 5.33333 8.00566 5.33333C9.48903 5.33333 10.7006 6.53362 10.7006 8.02831C10.6893 9.51168 9.48903 10.7233 8.00566 10.7233Z" fill="#fff"/>
<path d="M12.2859 4.6879C12.8175 4.6879 13.2484 4.25698 13.2484 3.72541C13.2484 3.19384 12.8175 2.76292 12.2859 2.76292C11.7543 2.76292 11.3234 3.19384 11.3234 3.72541C11.3234 4.25698 11.7543 4.6879 12.2859 4.6879Z" fill="#fff"/>
</svg>
