<svg width="17" height="17" viewBox="0 0 17 17" fill="none" xmlns="http://www.w3.org/2000/svg">
<path d="M10.2205 6.72875C9.84447 6.36126 9.41321 6.07025 8.94743 5.85201C8.65967 6.13476 8.50005 6.51126 8.50005 6.91025C8.50005 7.07 8.53075 7.2215 8.57833 7.36625C8.77707 7.487 8.96584 7.6235 9.13543 7.78925C9.71479 8.35625 10.0348 9.10925 10.0348 9.91025C10.0348 10.7113 9.71556 11.465 9.1362 12.032L6.83411 14.2813C5.67386 15.4153 3.65263 15.4153 2.49315 14.2813C1.91303 13.7143 1.5938 12.9613 1.5938 12.1603C1.5938 11.3593 1.91303 10.6063 2.49238 10.0393L4.10691 8.46125C3.97109 7.961 3.89589 7.442 3.89589 6.91025C3.89589 6.78875 3.90586 6.668 3.91354 6.54801C3.84524 6.60725 3.77541 6.66501 3.70942 6.72875L1.40734 8.97875C0.537915 9.8285 0.059082 10.958 0.059082 12.1603C0.059082 13.3625 0.537915 14.492 1.40734 15.3418C2.27752 16.1923 3.43317 16.6603 4.66325 16.6603C5.89333 16.6603 7.04897 16.1923 7.91916 15.3418L10.2212 13.0925C11.0899 12.242 11.5695 11.1125 11.5695 9.91025C11.5695 8.708 11.0899 7.5785 10.2205 6.72875Z" fill="#868686"/>
<path d="M15.5927 1.47866C14.7225 0.628156 13.5669 0.160156 12.3368 0.160156C11.1067 0.160156 9.95108 0.628156 9.08089 1.47866L6.77881 3.72791C5.91015 4.57841 5.43055 5.70791 5.43055 6.91016C5.43055 8.11241 5.90939 9.24191 6.77881 10.0917C7.15481 10.4592 7.58607 10.7502 8.05186 10.9684C8.34039 10.6857 8.5 10.3092 8.5 9.91016C8.5 9.74666 8.46854 9.59141 8.41866 9.44366C8.22068 9.32741 8.03267 9.19466 7.86539 9.03116C7.28527 8.46416 6.96528 7.71116 6.96528 6.91016C6.96528 6.10916 7.2845 5.35541 7.86386 4.78841L10.1659 2.53916C10.7461 1.97216 11.5173 1.66016 12.3368 1.66016C13.1563 1.66016 13.9275 1.97216 14.5077 2.53916C15.087 3.10616 15.4062 3.85916 15.4062 4.66016C15.4062 5.46116 15.087 6.21416 14.5077 6.78116L12.8908 8.36141C13.0274 8.86091 13.1042 9.37916 13.1042 9.91016C13.1042 10.0317 13.095 10.1517 13.088 10.2717C13.1563 10.2124 13.2262 10.1554 13.2914 10.0917L15.5935 7.84166C16.4621 6.99191 16.941 5.86241 16.941 4.66016C16.941 3.45791 16.4621 2.32841 15.5927 1.47866Z" fill="#868686"/>
</svg>
