<svg width="177" height="50" viewBox="0 0 177 50" fill="none" xmlns="http://www.w3.org/2000/svg">
<path d="M10.9355 30.1652L0.602051 7.24219H5.94982L10.8868 20.0128H10.9773L15.9212 7.24219H21.2689L10.9355 30.1652Z" fill="#B80001"/>
<path d="M50.6539 22.4569L54.7135 24.7199C51.8585 28.3222 48.4001 30.1373 44.3382 30.1652C41.0986 30.2553 37.9531 29.0701 35.5785 26.8646C34.412 25.7931 33.4903 24.4827 32.8763 23.0227C32.2622 21.5626 31.9703 19.9874 32.0203 18.4043C31.9697 16.8201 32.2614 15.2436 32.8755 13.7824C33.4895 12.3211 34.4115 11.0095 35.5785 9.93697C37.9558 7.73659 41.1001 6.55435 44.3382 6.64336C47.1336 6.65368 49.821 7.72368 51.8585 9.63755C54.5603 12.0329 55.9111 15.2151 55.9111 19.1841V20.0615H37.375C37.4265 20.8752 37.6506 21.6685 38.0324 22.3889C38.4141 23.1092 38.9449 23.7401 39.5893 24.2395C40.8795 25.3232 42.5141 25.9109 44.199 25.8967C46.78 25.9106 48.9316 24.764 50.6539 22.4569ZM37.375 16.0994H50.2848C49.2403 12.6225 47.0423 10.884 43.6906 10.884C42.2127 10.8359 40.7683 11.3314 39.6311 12.2766C38.493 13.2796 37.7029 14.6183 37.375 16.0994Z" fill="#B80001"/>
<path d="M57.7007 11.7609V7.24177H60.4163V1.33694L65.1653 0V7.24177H69.0438V11.7609H65.1653V20.5694C65.1653 22.6932 65.8616 24.1346 67.1707 24.9075L69.7819 26.3837L67.6929 30.1647C64.9912 28.8417 63.1622 27.6812 62.2059 26.6831C60.9503 25.2373 60.3083 23.3587 60.4163 21.4468V11.7609H57.7007Z" fill="#B80001"/>
<path d="M78.1309 7.24152V9.96415C79.0154 8.87156 80.1441 8.00185 81.4261 7.42496C82.708 6.84808 84.1075 6.58013 85.5119 6.64269C87.0595 6.60448 88.5982 6.88802 90.0305 7.47534C91.4629 8.06266 92.7577 8.94097 93.833 10.0547C94.9244 11.1504 95.7831 12.4554 96.3574 13.8913C96.9318 15.3272 97.21 16.8644 97.1753 18.4106C97.1979 19.9592 96.9002 21.4959 96.3011 22.9242C95.702 24.3525 94.8143 25.6416 93.6937 26.7107C92.6078 27.8247 91.3077 28.7074 89.8717 29.3058C88.4357 29.9041 86.8934 30.2057 85.3378 30.1924C82.0233 30.1924 79.6396 29.0852 78.1866 26.8709V37.3158H73.4307V7.24152H78.1309ZM92.0991 18.3827C92.1143 17.4328 91.937 16.4897 91.578 15.6101C91.219 14.7305 90.6856 13.9327 90.0101 13.2647C89.3635 12.5861 88.5824 12.0498 87.7167 11.6901C86.851 11.3304 85.9199 11.1552 84.9827 11.1758C84.0482 11.16 83.1211 11.3431 82.2627 11.7128C81.4044 12.0826 80.6345 12.6305 80.004 13.3204C79.3477 13.9951 78.8309 14.7926 78.4832 15.6672C78.1355 16.5418 77.9637 17.4764 77.9777 18.4175C77.9526 20.3176 78.6812 22.1503 80.004 23.5146C80.6345 24.2045 81.4044 24.7525 82.2627 25.1222C83.1211 25.492 84.0482 25.675 84.9827 25.6593C85.9196 25.6781 86.8503 25.5022 87.7157 25.1426C88.5811 24.783 89.3624 24.2476 90.0101 23.5703C90.6917 22.8966 91.2285 22.0909 91.5877 21.2025C91.9469 20.314 92.1209 19.3616 92.0991 18.4036V18.3827Z" fill="#120F0F"/>
<path d="M99.6333 29.5655V7.24133H104.152V9.68542C104.47 8.76996 105.073 7.98049 105.873 7.43284C106.672 6.88519 107.626 6.60819 108.595 6.64249C109.53 6.61173 110.455 6.85366 111.255 7.33881L109.542 12.0877C109.03 11.668 108.387 11.4412 107.725 11.4471C107.281 11.4347 106.84 11.5143 106.429 11.6809C106.018 11.8475 105.646 12.0974 105.336 12.415C105.019 12.7257 104.769 13.0977 104.6 13.5083C104.431 13.9189 104.347 14.3595 104.354 14.8034V29.5655H99.6333Z" fill="#120F0F"/>
<path d="M129.533 22.4568L133.6 24.7198C130.735 28.3221 127.277 30.1372 123.224 30.1651C119.983 30.254 116.836 29.0691 114.458 26.8645C113.294 25.7915 112.374 24.4806 111.761 23.0209C111.149 21.5611 110.857 19.9865 110.906 18.4042C110.856 16.8206 111.147 15.2447 111.76 13.7837C112.373 12.3226 113.293 11.0106 114.458 9.93685C116.838 7.73734 119.984 6.55538 123.224 6.64324C126.018 6.65255 128.704 7.72282 130.738 9.63743C133.449 12.0421 134.802 15.2243 134.797 19.184V20.0614H116.254C116.306 20.875 116.53 21.6684 116.912 22.3888C117.293 23.1091 117.824 23.74 118.469 24.2393C119.759 25.3231 121.393 25.9107 123.078 25.8966C125.664 25.9105 127.816 24.7639 129.533 22.4568ZM116.254 16.0993H129.164C128.12 12.6223 125.922 10.8839 122.57 10.8839C121.092 10.8345 119.647 11.3302 118.51 12.2765C117.372 13.2795 116.582 14.6182 116.254 16.0993Z" fill="#120F0F"/>
<path d="M136.483 26.2443L139.77 22.9228C140.64 23.9387 141.718 24.7564 142.932 25.3209C144.145 25.8854 145.464 26.1836 146.802 26.1955C147.769 26.199 148.722 25.9773 149.588 25.548C150.667 25.0327 151.21 24.3085 151.21 23.3894C151.21 22.0385 150.224 21.1797 148.251 20.813L145.535 20.2977C143.652 20.0157 141.828 19.4227 140.139 18.5429C139.326 18.083 138.655 17.4098 138.197 16.5962C137.74 15.7826 137.513 14.8594 137.541 13.9263C137.517 12.8597 137.758 11.8038 138.245 10.8541C138.731 9.90454 139.447 9.09128 140.327 8.48803C142.064 7.22251 144.174 6.57311 146.322 6.64277C149.531 6.71244 152.635 7.79996 155.186 9.74837L152.401 13.0977C150.76 11.5712 148.624 10.6863 146.385 10.6049C145.451 10.5926 144.529 10.8153 143.704 11.2524C143.281 11.4365 142.921 11.7389 142.666 12.1232C142.412 12.5074 142.274 12.9571 142.269 13.418C142.269 14.6226 143.251 15.4025 145.222 15.7716L150.096 16.6977C154.033 17.4358 156.001 19.418 156.001 22.6443C156.029 23.7681 155.768 24.8803 155.242 25.8741C154.716 26.8678 153.944 27.7099 153 28.3193C151.089 29.5835 148.835 30.2278 146.545 30.1646C142.825 30.1308 139.245 28.7363 136.483 26.2443Z" fill="#120F0F"/>
<path d="M156.85 26.2443L160.137 22.9228C161.007 23.9387 162.086 24.7564 163.299 25.3209C164.512 25.8854 165.832 26.1836 167.17 26.1955C168.136 26.199 169.089 25.9773 169.955 25.548C171.034 25.0327 171.577 24.3085 171.577 23.3894C171.577 22.0385 170.589 21.182 168.625 20.813L165.902 20.2977C164.019 20.0157 162.195 19.4227 160.506 18.5429C159.695 18.0815 159.026 17.4078 158.569 16.5944C158.113 15.781 157.887 14.8586 157.915 13.9263C157.89 12.8596 158.132 11.8034 158.618 10.8537C159.104 9.904 159.82 9.09083 160.701 8.48803C162.438 7.22251 164.548 6.57311 166.696 6.64277C169.896 6.7183 172.989 7.80551 175.532 9.74837L172.803 13.1186C171.161 11.5942 169.026 10.7097 166.787 10.6257C165.851 10.6123 164.926 10.835 164.099 11.2733C163.677 11.4588 163.318 11.7616 163.064 12.1455C162.809 12.5295 162.671 12.9784 162.664 13.4389C162.664 14.6435 163.646 15.4234 165.617 15.7925L170.491 16.7186C174.428 17.4567 176.396 19.4389 176.396 22.6652C176.425 23.7885 176.165 24.9005 175.641 25.8943C175.117 26.8881 174.346 27.7304 173.402 28.3402C171.489 29.6057 169.232 30.2502 166.94 30.1855C163.207 30.1527 159.617 28.7502 156.85 26.2443Z" fill="#120F0F"/>
<path d="M26.5191 8.53706C25.6833 8.54079 24.8648 8.29863 24.1655 7.84074V29.566H28.9145V7.79199C28.2098 8.27703 27.3746 8.53683 26.5191 8.53706Z" fill="#B80001"/>
<mask id="mask0_68_6817" style="mask-type:luminance" maskUnits="userSpaceOnUse" x="22" y="5" width="6" height="3">
<path d="M27.4736 5.8908C26.0717 5.44775 24.5736 5.40674 23.1495 5.77242L22.2651 7.08847C23.849 6.1941 25.6582 5.77809 27.4736 5.8908Z" fill="white"/>
</mask>
<g mask="url(#mask0_68_6817)">
<path d="M27.4736 5.39648H22.2651V7.08159H27.4736V5.39648Z" fill="url(#paint0_linear_68_6817)"/>
</g>
<mask id="mask1_68_6817" style="mask-type:luminance" maskUnits="userSpaceOnUse" x="23" y="3" width="9" height="4">
<path d="M23.3652 5.44459C24.7166 4.8914 26.1951 4.72413 27.6359 4.9614C29.0768 5.19867 30.4235 5.83118 31.5262 6.7885C30.7255 5.72088 29.666 4.87486 28.4477 4.33027C27.2294 3.78569 25.8924 3.56049 24.5629 3.67593L23.3652 5.44459Z" fill="white"/>
</mask>
<g mask="url(#mask1_68_6817)">
<path d="M31.5262 3.4668H23.3652V6.78826H31.5262V3.4668Z" fill="url(#paint1_linear_68_6817)"/>
</g>
<mask id="mask2_68_6817" style="mask-type:luminance" maskUnits="userSpaceOnUse" x="25" y="0" width="5" height="5">
<path d="M25.9204 2.66667C27.4365 2.96886 28.8364 3.69296 29.9591 4.75564C28.9822 3.2266 27.9246 1.75063 26.7908 0.333984L26.0249 1.46203L25.8717 1.67789C25.5444 2.24888 25.0988 2.5274 25.9204 2.66667Z" fill="white"/>
</mask>
<g mask="url(#mask2_68_6817)">
<path d="M29.959 0.333984H25.0986V4.7626H29.959V0.333984Z" fill="url(#paint2_linear_68_6817)"/>
</g>
<path d="M22.9106 48.0255V41.093H25.6779C26.9078 41.093 27.7149 41.78 27.7149 42.8273V42.8369C27.7149 43.5671 27.1624 44.2445 26.4321 44.3502V44.3695C27.417 44.4703 28.056 45.1477 28.056 46.0605V46.0701C28.056 47.2856 27.1672 48.0255 25.6923 48.0255H22.9106ZM25.4185 41.9721H23.9868V44.0476H25.1782C26.1295 44.0476 26.6435 43.6632 26.6435 42.9666V42.957C26.6435 42.3229 26.1967 41.9721 25.4185 41.9721ZM25.3992 44.8787H23.9868V47.1463H25.4713C26.4369 47.1463 26.9558 46.7572 26.9558 46.0173V46.0077C26.9558 45.263 26.4273 44.8787 25.3992 44.8787Z" fill="#7A716D"/>
<path d="M31.1931 40.5309V40.5165C31.4622 40.3147 31.6255 40.1225 31.6255 39.94C31.6255 39.7238 31.3805 39.5989 31.0442 39.5989C30.9049 39.5989 30.804 39.6133 30.7271 39.6229V39.0608C30.852 39.0127 31.0586 38.9743 31.2844 38.9743C31.8513 38.9743 32.3317 39.2866 32.3317 39.7718C32.3317 40.0697 32.1636 40.3147 31.8465 40.5309H31.1931ZM28.4691 48.0255L30.9914 41.093H32.154L34.6714 48.0255H33.5424L32.9082 46.1518H30.2371L29.5981 48.0255H28.4691ZM31.5631 42.2412L30.5253 45.2871H32.6152L31.5823 42.2412H31.5631Z" fill="#7A716D"/>
<path d="M38.1881 48.1408C36.1895 48.1408 34.9404 46.7668 34.9404 44.5616V44.552C34.9404 42.3517 36.1943 40.9777 38.1881 40.9777C40.1866 40.9777 41.4357 42.3565 41.4357 44.552V44.5616C41.4357 46.762 40.1914 48.1408 38.1881 48.1408ZM38.1881 47.1895C39.5189 47.1895 40.3356 46.1614 40.3356 44.5616V44.552C40.3356 42.9426 39.5044 41.9289 38.1881 41.9289C36.8765 41.9289 36.0358 42.9378 36.0358 44.552V44.5616C36.0358 46.1758 36.8717 47.1895 38.1881 47.1895Z" fill="#7A716D"/>
<path d="M46.4177 48.0255L43.9484 41.093H45.1062L46.999 46.8292H47.0231L48.9159 41.093H50.0737L47.6044 48.0255H46.4177Z" fill="#7A716D"/>
<path d="M51.5438 40.5309L52.6008 39.0704H53.4847L54.5417 40.5309H53.7298L53.0379 39.5652L52.3558 40.5309H51.5438ZM50.8424 48.0255V41.093H55.2431V42.0202H51.9186V44.0428H55.0653V44.946H51.9186V47.0983H55.2431V48.0255H50.8424ZM53.0428 50C52.7065 50 52.4374 49.731 52.4374 49.4043C52.4374 49.0728 52.7065 48.8038 53.0428 48.8038C53.3839 48.8038 53.6481 49.0728 53.6481 49.4043C53.6481 49.731 53.3839 50 53.0428 50Z" fill="#7A716D"/>
<path d="M58.3466 48.0255V41.093H59.3411L62.9058 46.2191H62.9347V41.093H64.0012V48.0255H63.0115L59.442 42.8897H59.4132V48.0255H58.3466Z" fill="#7A716D"/>
<path d="M65.2839 48.0255V41.093H66.3601V48.0255H65.2839Z" fill="#7A716D"/>
<path d="M71.1739 39.57H70.5638L69.6029 38.6572H70.4389L71.1739 39.57ZM69.4396 39.791H70.2323L71.2027 40.7615H70.4052L69.8335 40.185L69.2714 40.7615H68.4739L69.4396 39.791ZM67.638 48.0255V41.093H72.0387V42.0202H68.7141V44.0428H71.8609V44.946H68.7141V47.0983H72.0387V48.0255H67.638Z" fill="#7A716D"/>
<path d="M73.1436 48.0255V41.093H74.3879L76.6315 46.6274H76.6603L78.9087 41.093H80.1482V48.0255H79.1681V42.909H79.1345L77.0447 48.0255H76.2472L74.1573 42.909H74.1237V48.0255H73.1436Z" fill="#7A716D"/>
<path d="M85.1446 48.0255V42.0202H83.0211V41.093H88.3394V42.0202H86.2207V48.0255H85.1446Z" fill="#7A716D"/>
<path d="M89.2186 48.0255V41.093H90.2947V48.0255H89.2186Z" fill="#7A716D"/>
<path d="M91.5727 48.0255V41.093H92.5671L96.1319 46.2191H96.1607V41.093H97.2272V48.0255H96.2376L92.668 42.8897H92.6392V48.0255H91.5727Z" fill="#7A716D"/>
<path d="M103.473 48.1408C101.508 48.1408 100.259 46.7572 100.259 44.5568V44.552C100.259 42.3517 101.508 40.9777 103.473 40.9777C105 40.9777 106.149 41.9193 106.365 43.2885L106.374 43.3317H105.308L105.279 43.2357C105.049 42.4237 104.405 41.9289 103.473 41.9289C102.185 41.9289 101.359 42.9474 101.359 44.552V44.5568C101.359 46.1614 102.19 47.1895 103.473 47.1895C104.395 47.1895 105.034 46.7091 105.294 45.8299L105.308 45.7867H106.374L106.37 45.8347C106.153 47.2136 105.005 48.1408 103.473 48.1408Z" fill="#7A716D"/>
<path d="M108.844 40.5309L109.901 39.0704H110.785L111.846 40.5309H111.035L110.343 39.5652L109.656 40.5309H108.844ZM110.348 48.1408C108.349 48.1408 107.1 46.7668 107.1 44.5616V44.552C107.1 42.3517 108.354 40.9777 110.348 40.9777C112.346 40.9777 113.595 42.3565 113.595 44.552V44.5616C113.595 46.762 112.351 48.1408 110.348 48.1408ZM110.348 47.1895C111.678 47.1895 112.495 46.1614 112.495 44.5616V44.552C112.495 42.9426 111.664 41.9289 110.348 41.9289C109.036 41.9289 108.195 42.9378 108.195 44.552V44.5616C108.195 46.1758 109.031 47.1895 110.348 47.1895ZM110.348 50C110.011 50 109.742 49.731 109.742 49.4043C109.742 49.0728 110.011 48.8038 110.348 48.8038C110.684 48.8038 110.953 49.0728 110.953 49.4043C110.953 49.731 110.684 50 110.348 50Z" fill="#7A716D"/>
<path d="M114.623 48.0255V41.093H115.618L119.183 46.2191H119.211V41.093H120.278V48.0255H119.288L115.719 42.8897H115.69V48.0255H114.623Z" fill="#7A716D"/>
<path d="M124.544 48.1408C122.56 48.1408 121.311 46.7572 121.311 44.528V44.5232C121.311 42.3373 122.56 40.9777 124.53 40.9777C126.153 40.9777 127.172 41.9145 127.46 43.1636L127.479 43.2501H126.374L126.36 43.1972C126.067 42.3949 125.438 41.9289 124.534 41.9289C123.208 41.9289 122.406 42.8946 122.406 44.5184V44.5232C122.406 46.1806 123.233 47.1895 124.554 47.1895C125.678 47.1895 126.456 46.4785 126.471 45.4264V45.3111H124.65V44.4319H127.532V45.1429C127.532 47.0214 126.423 48.1408 124.544 48.1408Z" fill="#7A716D"/>
<path d="M130.79 48.0255V44.9556H130.155V44.1581H130.79V41.093H133.235C135.296 41.093 136.521 42.3565 136.521 44.5376V44.5472C136.521 46.7379 135.306 48.0255 133.235 48.0255H130.79ZM131.866 47.0934H133.139C134.609 47.0934 135.421 46.1951 135.421 44.5568V44.5472C135.421 42.9186 134.599 42.0202 133.139 42.0202H131.866V44.1581H133.043V44.9556H131.866V47.0934Z" fill="#7A716D"/>
<path d="M141.883 39.57H141.272L140.312 38.6572H141.143L141.883 39.57ZM140.148 39.791H140.936L141.907 40.7615H141.114L140.542 40.185L139.98 40.7615H139.183L140.148 39.791ZM140.547 48.1408C138.548 48.1408 137.299 46.7668 137.299 44.5616V44.552C137.299 42.3517 138.553 40.9777 140.547 40.9777C142.546 40.9777 143.795 42.3565 143.795 44.552V44.5616C143.795 46.762 142.55 48.1408 140.547 48.1408ZM140.547 47.1895C141.878 47.1895 142.694 46.1614 142.694 44.5616V44.552C142.694 42.9426 141.863 41.9289 140.547 41.9289C139.235 41.9289 138.395 42.9378 138.395 44.552V44.5616C138.395 46.1758 139.231 47.1895 140.547 47.1895Z" fill="#7A716D"/>
<path d="M144.823 48.0255V41.093H145.817L149.382 46.2191H149.411V41.093H150.477V48.0255H149.488L145.918 42.8897H145.889V48.0255H144.823Z" fill="#7A716D"/>
<path d="M154.743 48.1408C152.759 48.1408 151.51 46.7572 151.51 44.528V44.5232C151.51 42.3373 152.759 40.9777 154.729 40.9777C156.353 40.9777 157.371 41.9145 157.66 43.1636L157.679 43.2501H156.574L156.559 43.1972C156.266 42.3949 155.637 41.9289 154.734 41.9289C153.408 41.9289 152.606 42.8946 152.606 44.5184V44.5232C152.606 46.1806 153.432 47.1895 154.753 47.1895C155.877 47.1895 156.656 46.4785 156.67 45.4264V45.3111H154.849V44.4319H157.732V45.1429C157.732 47.0214 156.622 48.1408 154.743 48.1408Z" fill="#7A716D"/>
<defs>
<linearGradient id="paint0_linear_68_6817" x1="28.351" y1="5.70983" x2="22.2512" y2="6.6429" gradientUnits="userSpaceOnUse">
<stop stop-color="#FB342E"/>
<stop offset="1" stop-color="#B80001"/>
</linearGradient>
<linearGradient id="paint1_linear_68_6817" x1="32.8909" y1="4.03082" x2="23.3235" y2="5.95267" gradientUnits="userSpaceOnUse">
<stop stop-color="#FB342E"/>
<stop offset="1" stop-color="#B80001"/>
</linearGradient>
<linearGradient id="paint2_linear_68_6817" x1="30.5508" y1="0.779632" x2="25.6557" y2="3.64152" gradientUnits="userSpaceOnUse">
<stop stop-color="#FB342E"/>
<stop offset="1" stop-color="#B80001"/>
</linearGradient>
</defs>
</svg>
