<svg width="273" height="60" viewBox="0 0 273 60" fill="none" xmlns="http://www.w3.org/2000/svg">
<path d="M109.386 8.73874V3.3989H107.521V2.28531H112.606V3.3989H110.737V8.73874H109.386Z" fill="#7A716D"/>
<path d="M113.353 8.73874V2.28531H116.019C117.468 2.28531 118.326 3.05454 118.326 4.35148V4.36043C118.326 5.21015 117.875 5.91676 117.159 6.19852L118.519 8.73874H116.989L115.786 6.39977H114.704V8.73874H113.353ZM114.704 5.37562H115.871C116.542 5.37562 116.944 4.99548 116.944 4.36043V4.35148C116.944 3.73431 116.52 3.34076 115.853 3.34076H114.704V5.37562Z" fill="#7A716D"/>
<path d="M118.809 8.73874L121.063 2.28531H122.651L124.901 8.73874H123.483L122.995 7.17346H120.715L120.227 8.73874H118.809ZM121.842 3.53754L121.028 6.16274H122.682L121.868 3.53754H121.842Z" fill="#7A716D"/>
<path d="M125.562 8.73874V2.28531H126.743L129.659 6.48027H129.686V2.28531H131.032V8.73874H129.86L126.935 4.51248H126.909V8.73874H125.562Z" fill="#7A716D"/>
<path d="M135.017 8.85055C133.089 8.85055 131.909 7.59385 131.909 5.4919V5.48743C131.909 3.42126 133.094 2.17351 134.985 2.17351C136.537 2.17351 137.593 3.0769 137.807 4.28887L137.821 4.35148H136.466L136.448 4.30676C136.233 3.68065 135.719 3.3184 134.99 3.3184C133.926 3.3184 133.286 4.10551 133.286 5.47401V5.47849C133.286 6.87829 133.966 7.70566 135.039 7.70566C135.92 7.70566 136.524 7.18241 136.56 6.38635L136.564 6.29243H135.088V5.28618H137.879V6.02857C137.879 7.78616 136.815 8.85055 135.017 8.85055Z" fill="#7A716D"/>
<path d="M142.132 8.73874V3.3989H140.267V2.28531H145.352V3.3989H143.483V8.73874H142.132Z" fill="#7A716D"/>
<path d="M146.099 8.73874V2.28531H147.45V4.90604H150.357V2.28531H151.707V8.73874H150.357V6.01963H147.45V8.73874H146.099Z" fill="#7A716D"/>
<path d="M154.131 1.75312L155.164 0.277278H156.211L157.248 1.75312H156.318L155.678 0.858669L155.061 1.75312H154.131ZM155.692 8.85055C153.773 8.85055 152.579 7.56702 152.579 5.51426V5.50532C152.579 3.45256 153.782 2.17351 155.692 2.17351C157.606 2.17351 158.805 3.45704 158.805 5.50532V5.51426C158.805 7.56702 157.611 8.85055 155.692 8.85055ZM155.692 7.70566C156.765 7.70566 157.427 6.85146 157.427 5.51426V5.50532C157.427 4.15918 156.752 3.3184 155.692 3.3184C154.636 3.3184 153.957 4.15471 153.957 5.50532V5.51426C153.957 6.86488 154.632 7.70566 155.692 7.70566Z" fill="#7A716D"/>
<path d="M159.677 8.73874V2.28531H160.857L163.773 6.48027H163.8V2.28531H165.146V8.73874H163.974L161.05 4.51248H161.023V8.73874H159.677Z" fill="#7A716D"/>
<path d="M169.131 8.85055C167.203 8.85055 166.023 7.59385 166.023 5.4919V5.48743C166.023 3.42126 167.208 2.17351 169.1 2.17351C170.652 2.17351 171.707 3.0769 171.922 4.28887L171.935 4.35148H170.58L170.562 4.30676C170.347 3.68065 169.833 3.3184 169.104 3.3184C168.04 3.3184 167.4 4.10551 167.4 5.47401V5.47849C167.4 6.87829 168.08 7.70566 169.153 7.70566C170.034 7.70566 170.638 7.18241 170.674 6.38635L170.678 6.29243H169.203V5.28618H171.993V6.02857C171.993 7.78616 170.929 8.85055 169.131 8.85055Z" fill="#7A716D"/>
<path d="M176.246 8.73874V3.3989H174.381V2.28531H179.466V3.3989H177.597V8.73874H176.246Z" fill="#7A716D"/>
<path d="M180.213 8.73874V2.28531H181.564V8.73874H180.213Z" fill="#7A716D"/>
<path d="M182.637 8.73874V2.28531H183.818L186.734 6.48027H186.761V2.28531H188.107V8.73874H186.935L184.01 4.51248H183.983V8.73874H182.637Z" fill="#7A716D"/>
<path d="M191.179 8.73874V5.94807H190.642V5.07598H191.179V2.28531H193.643C195.575 2.28531 196.72 3.43467 196.72 5.47849V5.48743C196.72 7.53571 195.58 8.73874 193.643 8.73874H191.179ZM192.53 7.62069H193.482C194.685 7.62069 195.343 6.88724 195.343 5.4919V5.48296C195.343 4.13682 194.663 3.3989 193.482 3.3989H192.53V5.07598H193.505V5.94807H192.53V7.62069Z" fill="#7A716D"/>
<path d="M197.592 8.73874V2.28531H198.943V8.73874H197.592Z" fill="#7A716D"/>
<path d="M200.598 1.75312L201.626 0.277278H202.673L203.715 1.75312H202.785L202.145 0.858669L201.528 1.75312H200.598ZM200.016 8.73874V2.28531H204.292V3.3989H201.367V4.94629H204.126V6.00174H201.367V7.62516H204.292V8.73874H200.016ZM202.154 10.711C201.765 10.711 201.456 10.4024 201.456 10.0312C201.456 9.66002 201.765 9.35144 202.154 9.35144C202.548 9.35144 202.852 9.66002 202.852 10.0312C202.852 10.4024 202.548 10.711 202.154 10.711Z" fill="#7A716D"/>
<path d="M205.267 8.73874V2.28531H206.447L209.363 6.48027H209.39V2.28531H210.736V8.73874H209.564L206.64 4.51248H206.613V8.73874H205.267Z" fill="#7A716D"/>
<path d="M215.173 8.73874V3.3989H213.308V2.28531H218.393V3.3989H216.523V8.73874H215.173Z" fill="#7A716D"/>
<path d="M221.47 1.75312V1.7397C221.689 1.56081 221.854 1.38639 221.854 1.19409C221.854 0.974947 221.631 0.849724 221.282 0.849724C221.156 0.849724 221.036 0.867613 220.942 0.88103V0.232556C221.08 0.187834 221.3 0.143111 221.528 0.143111C222.163 0.143111 222.637 0.478529 222.637 0.992836C222.637 1.30589 222.458 1.55186 222.167 1.75312H221.47ZM221.845 8.85055C220.19 8.85055 219.139 7.89349 219.139 6.4579V2.28531H220.49V6.33715C220.49 7.17346 220.978 7.70566 221.845 7.70566C222.713 7.70566 223.196 7.17346 223.196 6.33715V2.28531C224.18 2.16456 224.399 1.88281 224.39 0.939169H225.396C225.396 1.89623 225.177 2.39264 224.546 2.6744V6.4579C224.546 7.88902 223.509 8.85055 221.845 8.85055Z" fill="#7A716D"/>
<path d="M228.983 8.73874V3.3989H227.118V2.28531H232.203V3.3989H230.333V8.73874H228.983Z" fill="#7A716D"/>
<path d="M236.138 1.07781V1.05992C236.237 0.970475 236.29 0.88103 236.29 0.787113C236.29 0.639529 236.188 0.545612 235.937 0.545612C235.861 0.545612 235.785 0.554557 235.727 0.567974V0.0626113C235.825 0.0313056 235.991 0 236.174 0C236.666 0 236.979 0.205723 236.979 0.536668C236.979 0.755807 236.845 0.925752 236.621 1.07781H236.138ZM235.065 1.08675H235.928L236.894 1.99014H236L235.494 1.51609L235.002 1.99014H234.108L235.065 1.08675ZM235.503 8.85055C233.585 8.85055 232.391 7.56702 232.391 5.51426V5.50532C232.391 3.45256 233.594 2.17351 235.503 2.17351C237.418 2.17351 238.616 3.45704 238.616 5.50532V5.51426C238.616 7.56702 237.422 8.85055 235.503 8.85055ZM235.503 7.70566C236.577 7.70566 237.239 6.85146 237.239 5.51426V5.50532C237.239 4.15918 236.563 3.3184 235.503 3.3184C234.448 3.3184 233.768 4.15471 233.768 5.50532V5.51426C233.768 6.86488 234.443 7.70566 235.503 7.70566Z" fill="#7A716D"/>
<path d="M239.488 8.73874V2.28531H240.669L243.585 6.48027H243.612V2.28531H244.958V8.73874H243.786L240.861 4.51248H240.834V8.73874H239.488Z" fill="#7A716D"/>
<path d="M248.942 8.85055C247.015 8.85055 245.834 7.59385 245.834 5.4919V5.48743C245.834 3.42126 247.019 2.17351 248.911 2.17351C250.463 2.17351 251.518 3.0769 251.733 4.28887L251.747 4.35148H250.391L250.374 4.30676C250.159 3.68065 249.645 3.3184 248.916 3.3184C247.851 3.3184 247.212 4.10551 247.212 5.47401V5.47849C247.212 6.87829 247.891 7.70566 248.965 7.70566C249.846 7.70566 250.45 7.18241 250.485 6.38635L250.49 6.29243H249.014V5.28618H251.805V6.02857C251.805 7.78616 250.74 8.85055 248.942 8.85055Z" fill="#7A716D"/>
<path d="M254.515 8.73874V2.28531H255.865V4.90604H258.772V2.28531H260.123V8.73874H258.772V6.01963H255.865V8.73874H254.515Z" fill="#7A716D"/>
<path d="M264.108 8.85055C262.189 8.85055 260.995 7.56702 260.995 5.51426V5.50532C260.995 3.45256 262.198 2.17351 264.108 2.17351C265.664 2.1422 266.013 1.8515 266.035 0.939169H267.042C267.015 1.9007 266.742 2.39264 265.825 2.61626C266.711 3.1574 267.22 4.16812 267.22 5.50532V5.51426C267.22 7.56702 266.026 8.85055 264.108 8.85055ZM264.108 7.70566C265.181 7.70566 265.843 6.85146 265.843 5.51426V5.50532C265.843 4.15918 265.168 3.3184 264.108 3.3184C263.052 3.3184 262.373 4.15471 262.373 5.50532V5.51426C262.373 6.86488 263.048 7.70566 264.108 7.70566ZM264.108 10.711C263.714 10.711 263.41 10.4024 263.41 10.0312C263.41 9.66002 263.714 9.35144 264.108 9.35144C264.501 9.35144 264.805 9.66002 264.805 10.0312C264.805 10.4024 264.501 10.711 264.108 10.711Z" fill="#7A716D"/>
<path d="M268.093 8.73874V2.28531H270.686C272.046 2.28531 272.954 3.16187 272.954 4.49012V4.49907C272.954 5.82732 272.046 6.70388 270.686 6.70388H269.443V8.73874H268.093ZM270.355 3.35417H269.443V5.64843H270.355C271.129 5.64843 271.585 5.23699 271.585 4.50354V4.49459C271.585 3.76115 271.129 3.35417 270.355 3.35417Z" fill="#7A716D"/>
<path d="M16.0285 48.821L0 13.2754H8.29507L15.9529 33.0842H16.0933L23.7619 13.2754H32.057L16.0285 48.821Z" fill="#B80001"/>
<path d="M77.6374 36.8754L83.9343 40.3857C79.5059 45.9734 74.1415 48.7852 67.841 48.8212C62.8188 48.968 57.9397 47.1373 54.2535 43.7232C52.4434 42.0595 51.0133 40.025 50.0608 37.7585C49.1083 35.4919 48.6559 33.0466 48.7343 30.5893C48.6567 28.1337 49.1096 25.6903 50.0621 23.4256C51.0146 21.1609 52.4442 19.1283 54.2535 17.4663C57.9479 14.0689 62.8243 12.2509 67.841 12.4007C72.177 12.4167 76.3456 14.0764 79.5059 17.045C83.6967 20.7317 85.7921 25.6641 85.7921 31.8422V33.2031H57.0402C57.12 34.4652 57.4676 35.6958 58.0598 36.8132C58.652 37.9305 59.4753 38.909 60.4748 39.6836C62.4761 41.3646 65.0115 42.2762 67.625 42.2543C71.6285 42.2471 74.966 40.4541 77.6374 36.8754ZM57.0402 27.0034H77.065C75.4448 21.5886 72.0354 18.8812 66.8365 18.8812C64.5362 18.8166 62.2933 19.6053 60.5396 21.0954C58.7788 22.646 57.5538 24.7141 57.0402 27.0034Z" fill="#B80001"/>
<path d="M88.5674 20.2851V13.2754H92.7797V4.11625L100.146 2.04248V13.2754H106.162V20.2851H100.146V34.0022C100.146 37.2425 101.226 39.5323 103.257 40.7204L107.307 43.0102L104.067 48.875C99.8759 46.8301 97.0389 45.0299 95.5555 43.4746C93.6381 41.2346 92.6626 38.3392 92.8337 35.3956V20.2851H88.5674Z" fill="#B80001"/>
<path d="M120.256 13.2756V17.4988C121.632 15.8119 123.385 14.4718 125.374 13.5863C127.362 12.7008 129.531 12.2947 131.705 12.4008C134.106 12.3415 136.493 12.7813 138.714 13.6923C140.936 14.6033 142.944 15.9657 144.612 17.6932C146.306 19.392 147.639 21.4161 148.53 23.6436C149.421 25.8711 149.852 28.2558 149.797 30.6542C149.833 33.0583 149.372 35.4438 148.443 37.6613C147.514 39.8787 146.136 41.88 144.396 43.5397C142.712 45.2681 140.696 46.6376 138.468 47.5658C136.241 48.4939 133.848 48.9614 131.435 48.9401C126.294 48.9401 122.597 47.2264 120.343 43.7989V60.0002H112.966V13.2756H120.256ZM141.923 30.557C141.945 29.0838 141.67 27.6212 141.113 26.2571C140.556 24.8929 139.729 23.6553 138.683 22.6184C137.678 21.5673 136.467 20.7365 135.124 20.1787C133.782 19.6209 132.338 19.3483 130.884 19.3781C129.435 19.3516 127.996 19.6346 126.664 20.2083C125.333 20.782 124.139 21.6331 123.162 22.7048C121.109 24.8157 119.978 27.6558 120.019 30.6002C119.997 32.06 120.264 33.5097 120.803 34.8664C121.342 36.223 122.144 37.46 123.162 38.5065C124.139 39.5782 125.333 40.4293 126.664 41.003C127.996 41.5766 129.435 41.8597 130.884 41.8331C132.338 41.863 133.782 41.5904 135.124 41.0326C136.467 40.4748 137.678 39.644 138.683 38.5929C139.739 37.5475 140.572 36.2977 141.129 34.9197C141.686 33.5417 141.956 32.0646 141.923 30.5786V30.557Z" fill="#120F0F"/>
<path d="M153.609 47.892V13.3293H160.619V17.1204C161.112 15.7004 162.048 14.4758 163.288 13.6263C164.528 12.7769 166.008 12.3472 167.51 12.4004C168.961 12.3527 170.395 12.728 171.636 13.4805L168.979 20.8467C168.189 20.1867 167.189 19.8305 166.16 19.8422C165.471 19.8243 164.787 19.9495 164.149 20.2097C163.511 20.47 162.935 20.8598 162.455 21.3543C161.97 21.8299 161.585 22.3981 161.324 23.0252C161.062 23.6523 160.929 24.3256 160.932 25.005V47.892H153.609Z" fill="#120F0F"/>
<path d="M199.988 36.8752L206.296 40.3855C201.853 45.9732 196.489 48.785 190.203 48.821C185.174 48.9688 180.288 47.1384 176.594 43.723C174.787 42.0574 173.359 40.0224 172.409 37.7561C171.458 35.4898 171.007 33.0454 171.085 30.5891C171.009 28.1346 171.461 25.6923 172.411 23.428C173.362 21.1637 174.788 19.1304 176.594 17.4661C180.293 14.07 185.172 12.2525 190.192 12.4005C194.525 12.4149 198.691 14.075 201.846 17.0448C206.051 20.7675 208.15 25.7035 208.143 31.8528V33.2137H179.391C179.471 34.4758 179.819 35.7064 180.411 36.8238C181.003 37.9411 181.826 38.9196 182.826 39.6943C184.827 41.3752 187.363 42.2868 189.976 42.2649C193.987 42.2505 197.324 40.4539 199.988 36.8752ZM179.391 27.0032H199.416C197.796 21.5884 194.386 18.881 189.188 18.881C186.887 18.8144 184.643 19.6033 182.891 21.0952C181.13 22.6458 179.905 24.7139 179.391 27.0032Z" fill="#120F0F"/>
<path d="M210.768 42.7507L215.866 37.5987C217.224 39.1741 218.905 40.4396 220.794 41.3097C222.683 42.1799 224.738 42.6345 226.818 42.6427C228.316 42.6481 229.795 42.3042 231.138 41.6383C232.812 40.839 233.655 39.7157 233.655 38.29C233.655 36.1946 232.124 34.8625 229.064 34.2937L224.852 33.4836C221.933 33.0496 219.107 32.1296 216.492 30.7618C215.222 30.0554 214.17 29.0144 213.45 27.7518C212.73 26.4893 212.37 25.0536 212.409 23.6008C212.37 21.9447 212.745 20.305 213.499 18.8301C214.253 17.3553 215.364 16.092 216.73 15.1545C219.434 13.2382 222.696 12.2699 226.008 12.4003C230.983 12.4789 235.805 14.1354 239.779 17.1311L235.458 22.3587C232.916 19.9868 229.602 18.6135 226.126 18.492C224.678 18.473 223.248 18.8184 221.968 19.4965C221.313 19.782 220.754 20.2511 220.359 20.8471C219.964 21.4431 219.75 22.1407 219.743 22.8556C219.743 24.7241 221.266 25.9338 224.323 26.5062L231.883 27.9428C237.989 29.0877 241.042 32.1623 241.042 37.1667C241.086 38.9099 240.68 40.635 239.865 42.1765C239.05 43.7179 237.852 45.024 236.387 45.9694C233.422 47.9265 229.926 48.9221 226.375 48.8208C220.606 48.7723 215.054 46.6131 210.768 42.7507Z" fill="#120F0F"/>
<path d="M242.36 42.7508L247.458 37.5988C248.809 39.1746 250.481 40.4429 252.363 41.3186C254.245 42.1942 256.292 42.6568 258.367 42.6752C259.866 42.6806 261.345 42.3367 262.688 41.6707C264.362 40.8715 265.204 39.7482 265.204 38.3225C265.204 36.2271 263.67 34.8986 260.625 34.3262L256.401 33.5161C253.495 33.0673 250.684 32.1364 248.085 30.7619C246.818 30.0531 245.768 29.0113 245.05 27.7491C244.333 26.4869 243.974 25.0524 244.013 23.6009C243.974 21.9448 244.348 20.3051 245.103 18.8302C245.857 17.3554 246.967 16.092 248.333 15.1546C251.034 13.2406 254.292 12.2724 257.6 12.4004C262.571 12.5014 267.381 14.1767 271.339 17.1852L267.105 22.4128C264.56 20.0442 261.247 18.6715 257.773 18.5461C256.321 18.5253 254.887 18.8707 253.604 19.5506C252.95 19.8383 252.393 20.3079 251.998 20.9035C251.604 21.499 251.389 22.1954 251.379 22.9096C251.379 24.7782 252.902 25.9879 255.959 26.5603L263.519 27.9969C269.625 29.1417 272.678 32.2164 272.678 37.2208C272.724 38.9632 272.321 40.688 271.507 42.2295C270.694 43.7711 269.498 45.0776 268.034 46.0235C265.066 47.9827 261.566 48.9784 258.011 48.8749C252.219 48.8222 246.649 46.6426 242.36 42.7508Z" fill="#120F0F"/>
<path d="M40.2005 15.2846C38.9029 15.2982 37.6311 14.9219 36.5498 14.2045V47.8924H43.916V14.1289C42.823 14.8813 41.5274 15.2842 40.2005 15.2846Z" fill="#B80001"/>
<mask id="mask0_8_2636" style="mask-type:luminance" maskUnits="userSpaceOnUse" x="33" y="10" width="9" height="4">
<path d="M41.6796 11.1693C39.5031 10.4908 37.1808 10.431 34.9723 10.9965L33.6006 13.0271C36.0614 11.6501 38.8646 11.0055 41.6796 11.1693Z" fill="white"/>
</mask>
<g mask="url(#mask0_8_2636)">
<path d="M41.6796 10.4131H33.6006V13.0269H41.6796V10.4131Z" fill="url(#paint0_linear_8_2636)"/>
</g>
<mask id="mask1_8_2636" style="mask-type:luminance" maskUnits="userSpaceOnUse" x="35" y="7" width="13" height="6">
<path d="M35.3086 10.4888C37.4048 9.63073 39.698 9.37127 41.933 9.73931C44.1679 10.1073 46.2568 11.0884 47.9672 12.5734C46.7253 10.9174 45.0819 9.60508 43.1921 8.76035C41.3024 7.91563 39.2286 7.56632 37.1663 7.74538L35.3086 10.4888Z" fill="white"/>
</mask>
<g mask="url(#mask1_8_2636)">
<path d="M47.9672 7.42139H35.3086V12.5734H47.9672V7.42139Z" fill="url(#paint1_linear_8_2636)"/>
</g>
<mask id="mask2_8_2636" style="mask-type:luminance" maskUnits="userSpaceOnUse" x="38" y="2" width="8" height="8">
<path d="M39.2707 6.1789C41.6223 6.64764 43.7938 7.77081 45.5352 9.41916C44.0199 7.04396 42.3795 4.75095 40.6208 2.5498L39.4327 4.29955L39.1951 4.64517C38.6875 5.52004 37.9962 5.91967 39.2707 6.1789Z" fill="white"/>
</mask>
<g mask="url(#mask2_8_2636)">
<path d="M45.5351 2.5498H37.9961V9.41916H45.5351V2.5498Z" fill="url(#paint2_linear_8_2636)"/>
</g>
<defs>
<linearGradient id="paint0_linear_8_2636" x1="43.0405" y1="10.8991" x2="33.5682" y2="12.3464" gradientUnits="userSpaceOnUse">
<stop stop-color="#FB342E"/>
<stop offset="1" stop-color="#B80001"/>
</linearGradient>
<linearGradient id="paint1_linear_8_2636" x1="50.0842" y1="8.30706" x2="35.233" y2="11.2881" gradientUnits="userSpaceOnUse">
<stop stop-color="#FB342E"/>
<stop offset="1" stop-color="#B80001"/>
</linearGradient>
<linearGradient id="paint2_linear_8_2636" x1="46.4532" y1="3.25186" x2="38.8494" y2="7.69101" gradientUnits="userSpaceOnUse">
<stop stop-color="#FB342E"/>
<stop offset="1" stop-color="#B80001"/>
</linearGradient>
</defs>
</svg>
