<svg width="119" height="26" viewBox="0 0 119 26" fill="none" xmlns="http://www.w3.org/2000/svg">
<path d="M47.4009 3.78679V1.47286H46.5928V0.990302H48.7962V1.47286H47.9862V3.78679H47.4009Z" fill="white"/>
<path d="M49.1199 3.78679V0.990302H50.2749C50.9028 0.990302 51.2749 1.32363 51.2749 1.88564V1.88952C51.2749 2.25773 51.0792 2.56393 50.7691 2.68602L51.3582 3.78679H50.6955L50.1741 2.77323H49.7051V3.78679H49.1199ZM49.7051 2.32944H50.211C50.5017 2.32944 50.6761 2.16471 50.6761 1.88952V1.88564C50.6761 1.6182 50.492 1.44766 50.2032 1.44766H49.7051V2.32944Z" fill="white"/>
<path d="M51.4842 3.78679L52.4609 0.990302H53.1489L54.1237 3.78679H53.5094L53.2981 3.1085H52.3098L52.0985 3.78679H51.4842ZM52.7981 1.53293L52.4454 2.67052H53.1625L52.8098 1.53293H52.7981Z" fill="white"/>
<path d="M54.4105 3.78679V0.990302H54.9222L56.1857 2.80812H56.1973V0.990302H56.7807V3.78679H56.2729L55.0055 1.95541H54.9939V3.78679H54.4105Z" fill="white"/>
<path d="M58.5074 3.83524C57.6721 3.83524 57.1605 3.29067 57.1605 2.37982V2.37789C57.1605 1.48255 57.6741 0.941852 58.4938 0.941852C59.1663 0.941852 59.6237 1.33332 59.7167 1.85851L59.7225 1.88564H59.1353L59.1275 1.86626C59.0345 1.59495 58.8117 1.43797 58.4958 1.43797C58.0345 1.43797 57.7574 1.77905 57.7574 2.37207V2.37401C57.7574 2.98059 58.052 3.33912 58.5171 3.33912C58.8989 3.33912 59.1605 3.11238 59.176 2.76742L59.1779 2.72672H58.5384V2.29068H59.7477V2.61238C59.7477 3.374 59.2865 3.83524 58.5074 3.83524Z" fill="white"/>
<path d="M61.5907 3.78679V1.47286H60.7826V0.990302H62.986V1.47286H62.176V3.78679H61.5907Z" fill="white"/>
<path d="M63.3097 3.78679V0.990302H63.8949V2.12595H65.1546V0.990302H65.7399V3.78679H65.1546V2.6085H63.8949V3.78679H63.3097Z" fill="white"/>
<path d="M66.7903 0.759683L67.2379 0.120154H67.6914L68.141 0.759683H67.7379L67.4608 0.37209L67.1934 0.759683H66.7903ZM67.4666 3.83524C66.6352 3.83524 66.1178 3.27904 66.1178 2.38951V2.38564C66.1178 1.49611 66.6391 0.941852 67.4666 0.941852C68.2961 0.941852 68.8155 1.49805 68.8155 2.38564V2.38951C68.8155 3.27904 68.298 3.83524 67.4666 3.83524ZM67.4666 3.33912C67.9317 3.33912 68.2186 2.96897 68.2186 2.38951V2.38564C68.2186 1.80231 67.9259 1.43797 67.4666 1.43797C67.0093 1.43797 66.7147 1.80037 66.7147 2.38564V2.38951C66.7147 2.97478 67.0073 3.33912 67.4666 3.33912Z" fill="white"/>
<path d="M69.1934 3.78679V0.990302H69.705L70.9685 2.80812H70.9802V0.990302H71.5635V3.78679H71.0557L69.7883 1.95541H69.7767V3.78679H69.1934Z" fill="white"/>
<path d="M73.2902 3.83524C72.455 3.83524 71.9433 3.29067 71.9433 2.37982V2.37789C71.9433 1.48255 72.4569 0.941852 73.2767 0.941852C73.9491 0.941852 74.4065 1.33332 74.4995 1.85851L74.5053 1.88564H73.9181L73.9104 1.86626C73.8173 1.59495 73.5945 1.43797 73.2786 1.43797C72.8174 1.43797 72.5402 1.77905 72.5402 2.37207V2.37401C72.5402 2.98059 72.8348 3.33912 73.2999 3.33912C73.6817 3.33912 73.9433 3.11238 73.9588 2.76742L73.9608 2.72672H73.3212V2.29068H74.5305V2.61238C74.5305 3.374 74.0693 3.83524 73.2902 3.83524Z" fill="white"/>
<path d="M76.3735 3.78679V1.47286H75.5654V0.990302H77.7689V1.47286H76.9588V3.78679H76.3735Z" fill="white"/>
<path d="M78.0925 3.78679V0.990302H78.6778V3.78679H78.0925Z" fill="white"/>
<path d="M79.1429 3.78679V0.990302H79.6545L80.9181 2.80812H80.9297V0.990302H81.513V3.78679H81.0053L79.7378 1.95541H79.7262V3.78679H79.1429Z" fill="white"/>
<path d="M82.8444 3.78679V2.5775H82.6118V2.19959H82.8444V0.990302H83.9122C84.7494 0.990302 85.2455 1.48836 85.2455 2.37401V2.37789C85.2455 3.26548 84.7514 3.78679 83.9122 3.78679H82.8444ZM83.4297 3.3023H83.8424C84.3638 3.3023 84.6486 2.98447 84.6486 2.37982V2.37595C84.6486 1.79262 84.3541 1.47286 83.8424 1.47286H83.4297V2.19959H83.8521V2.5775H83.4297V3.3023Z" fill="white"/>
<path d="M85.6234 3.78679V0.990302H86.2087V3.78679H85.6234Z" fill="white"/>
<path d="M86.9258 0.759683L87.3715 0.120154H87.825L88.2765 0.759683H87.8734L87.5963 0.37209L87.3289 0.759683H86.9258ZM86.6738 3.78679V0.990302H88.5265V1.47286H87.2591V2.14339H88.4548V2.60075H87.2591V3.30424H88.5265V3.78679H86.6738ZM87.6002 4.64143C87.4316 4.64143 87.2979 4.50771 87.2979 4.34686C87.2979 4.18601 87.4316 4.05229 87.6002 4.05229C87.7707 4.05229 87.9025 4.18601 87.9025 4.34686C87.9025 4.50771 87.7707 4.64143 87.6002 4.64143Z" fill="white"/>
<path d="M88.949 3.78679V0.990302H89.4606L90.7242 2.80812H90.7358V0.990302H91.3191V3.78679H90.8114L89.544 1.95541H89.5323V3.78679H88.949Z" fill="white"/>
<path d="M93.2416 3.78679V1.47286H92.4335V0.990302H94.6369V1.47286H93.8269V3.78679H93.2416Z" fill="white"/>
<path d="M95.9703 0.759683V0.753869C96.0652 0.676351 96.1369 0.60077 96.1369 0.517437C96.1369 0.422477 96.04 0.368214 95.8889 0.368214C95.8346 0.368214 95.7823 0.375966 95.7416 0.38178V0.100774C95.8017 0.0813947 95.8966 0.062015 95.9954 0.062015C96.2706 0.062015 96.4761 0.207363 96.4761 0.430229C96.4761 0.565887 96.3985 0.672475 96.2726 0.759683H95.9703ZM96.133 3.83524C95.416 3.83524 94.9606 3.42051 94.9606 2.79843V0.990302H95.5458V2.7461C95.5458 3.1085 95.7571 3.33912 96.133 3.33912C96.509 3.33912 96.7183 3.1085 96.7183 2.7461V0.990302C97.1447 0.937976 97.2396 0.815884 97.2357 0.406973H97.6718C97.6718 0.821698 97.5768 1.03681 97.3036 1.1589V2.79843C97.3036 3.41858 96.854 3.83524 96.133 3.83524Z" fill="white"/>
<path d="M99.226 3.78679V1.47286H98.4179V0.990302H100.621V1.47286H99.8113V3.78679H99.226Z" fill="white"/>
<path d="M102.327 0.46705V0.459298C102.369 0.420539 102.393 0.38178 102.393 0.341082C102.393 0.277129 102.348 0.236432 102.24 0.236432C102.207 0.236432 102.174 0.240308 102.148 0.246122V0.0271316C102.191 0.0135658 102.263 0 102.342 0C102.555 0 102.691 0.0891465 102.691 0.232556C102.691 0.327517 102.633 0.401159 102.536 0.46705H102.327ZM101.862 0.470926H102.236L102.654 0.862396H102.267L102.048 0.656971L101.835 0.862396H101.447L101.862 0.470926ZM102.052 3.83524C101.22 3.83524 100.703 3.27904 100.703 2.38951V2.38564C100.703 1.49611 101.224 0.941852 102.052 0.941852C102.881 0.941852 103.4 1.49805 103.4 2.38564V2.38951C103.4 3.27904 102.883 3.83524 102.052 3.83524ZM102.052 3.33912C102.517 3.33912 102.804 2.96897 102.804 2.38951V2.38564C102.804 1.80231 102.511 1.43797 102.052 1.43797C101.594 1.43797 101.3 1.80037 101.3 2.38564V2.38951C101.3 2.97478 101.592 3.33912 102.052 3.33912Z" fill="white"/>
<path d="M103.778 3.78679V0.990302H104.29L105.554 2.80812H105.565V0.990302H106.148V3.78679H105.641L104.373 1.95541H104.362V3.78679H103.778Z" fill="white"/>
<path d="M107.875 3.83524C107.04 3.83524 106.528 3.29067 106.528 2.37982V2.37789C106.528 1.48255 107.042 0.941852 107.862 0.941852C108.534 0.941852 108.991 1.33332 109.084 1.85851L109.09 1.88564H108.503L108.495 1.86626C108.402 1.59495 108.179 1.43797 107.864 1.43797C107.402 1.43797 107.125 1.77905 107.125 2.37207V2.37401C107.125 2.98059 107.42 3.33912 107.885 3.33912C108.267 3.33912 108.528 3.11238 108.544 2.76742L108.546 2.72672H107.906V2.29068H109.115V2.61238C109.115 3.374 108.654 3.83524 107.875 3.83524Z" fill="white"/>
<path d="M110.29 3.78679V0.990302H110.875V2.12595H112.135V0.990302H112.72V3.78679H112.135V2.6085H110.875V3.78679H110.29Z" fill="white"/>
<path d="M114.447 3.83524C113.615 3.83524 113.098 3.27904 113.098 2.38951V2.38564C113.098 1.49611 113.619 0.941852 114.447 0.941852C115.121 0.928287 115.272 0.802319 115.282 0.406973H115.718C115.707 0.823636 115.588 1.03681 115.191 1.13371C115.575 1.36821 115.796 1.80619 115.796 2.38564V2.38951C115.796 3.27904 115.278 3.83524 114.447 3.83524ZM114.447 3.33912C114.912 3.33912 115.199 2.96897 115.199 2.38951V2.38564C115.199 1.80231 114.906 1.43797 114.447 1.43797C113.989 1.43797 113.695 1.80037 113.695 2.38564V2.38951C113.695 2.97478 113.988 3.33912 114.447 3.33912ZM114.447 4.64143C114.276 4.64143 114.145 4.50771 114.145 4.34686C114.145 4.18601 114.276 4.05229 114.447 4.05229C114.617 4.05229 114.749 4.18601 114.749 4.34686C114.749 4.50771 114.617 4.64143 114.447 4.64143Z" fill="white"/>
<path d="M116.174 3.78679V0.990302H117.298C117.887 0.990302 118.28 1.37014 118.28 1.94572V1.9496C118.28 2.52517 117.887 2.90501 117.298 2.90501H116.759V3.78679H116.174ZM117.154 1.45348H116.759V2.44765H117.154C117.489 2.44765 117.687 2.26936 117.687 1.95153V1.94766C117.687 1.62983 117.489 1.45348 117.154 1.45348Z" fill="white"/>
<path d="M6.94568 21.1558L0 5.75266H3.59453L6.91291 14.3365H6.97376L10.2968 5.75266H13.8914L6.94568 21.1558Z" fill="white"/>
<path d="M33.6427 15.9793L36.3714 17.5004C34.4524 19.9218 32.1278 21.1402 29.3976 21.1558C27.2213 21.2194 25.107 20.4261 23.5097 18.9467C22.7253 18.2258 22.1056 17.3441 21.6929 16.362C21.2801 15.3798 21.0841 14.3202 21.118 13.2553C21.0844 12.1912 21.2807 11.1324 21.6934 10.1511C22.1062 9.16971 22.7257 8.28889 23.5097 7.56868C25.1106 6.09649 27.2237 5.30869 29.3976 5.37359C31.2765 5.38053 33.0829 6.09973 34.4524 7.38615C36.2684 8.98372 37.1764 11.1211 37.1764 13.7983V14.388H24.7172C24.7518 14.9349 24.9025 15.4681 25.1591 15.9523C25.4157 16.4365 25.7724 16.8605 26.2056 17.1962C27.0728 17.9246 28.1715 18.3196 29.304 18.3101C31.0389 18.307 32.4851 17.5301 33.6427 15.9793ZM24.7172 11.7015H33.3946C32.6926 9.35503 31.2152 8.18181 28.9623 8.18181C27.9655 8.15384 26.9936 8.4956 26.2337 9.14129C25.4706 9.81322 24.9398 10.7094 24.7172 11.7015Z" fill="white"/>
<path d="M38.3789 8.79025V5.75269H40.2043V1.78373L43.3963 0.885101V5.75269H46.0032V8.79025H43.3963V14.7343C43.3963 16.1384 43.8643 17.1307 44.7442 17.6455L46.4994 18.6378L45.0952 21.1792C43.2793 20.2931 42.0499 19.513 41.4071 18.839C40.5762 17.8684 40.1535 16.6137 40.2277 15.3381V8.79025H38.3789Z" fill="white"/>
<path d="M52.1114 5.75269V7.58271C52.7076 6.85174 53.4672 6.27102 54.3289 5.88731C55.1906 5.5036 56.1304 5.32763 57.0726 5.37358C58.1128 5.3479 59.1471 5.53847 60.1098 5.93325C61.0726 6.32802 61.9429 6.91838 62.6656 7.66696C63.3997 8.40312 63.9772 9.28022 64.3632 10.2455C64.7493 11.2107 64.9361 12.2441 64.9122 13.2834C64.928 14.3251 64.7283 15.3589 64.3256 16.3198C63.9229 17.2807 63.3259 18.1479 62.572 18.8671C61.8423 19.6161 60.9685 20.2095 60.0032 20.6117C59.038 21.0139 58.0013 21.2165 56.9556 21.2073C54.7277 21.2073 53.1255 20.4647 52.1488 18.9794V26H48.9521V5.75269H52.1114ZM61.5002 13.2413C61.5099 12.6029 61.3905 11.9691 61.1492 11.378C60.9079 10.7868 60.5497 10.2505 60.0961 9.80121C59.6609 9.34574 59.1358 8.98573 58.5541 8.74401C57.9723 8.50229 57.3467 8.38416 56.7169 8.3971C56.0887 8.38561 55.4652 8.50825 54.8881 8.75683C54.3111 9.00542 53.7936 9.37423 53.3704 9.83865C52.4807 10.7534 51.9908 11.9841 52.0084 13.26C51.9991 13.8926 52.1145 14.5208 52.3483 15.1087C52.582 15.6965 52.9293 16.2326 53.3704 16.686C53.7936 17.1505 54.3111 17.5193 54.8881 17.7679C55.4652 18.0164 56.0887 18.1391 56.7169 18.1276C57.3467 18.1405 57.9723 18.0224 58.5541 17.7807C59.1358 17.539 59.6609 17.179 60.0961 16.7235C60.554 16.2705 60.9147 15.7289 61.1561 15.1318C61.3975 14.5347 61.5146 13.8946 61.5002 13.2506V13.2413Z" fill="white"/>
<path d="M66.5645 20.7533V5.77613H69.602V7.41894C69.8157 6.8036 70.221 6.27296 70.7585 5.90485C71.2959 5.53675 71.9371 5.35056 72.5881 5.37361C73.2168 5.35294 73.838 5.51556 74.376 5.84165L73.2246 9.03367C72.8823 8.74768 72.4491 8.59332 72.003 8.59839C71.7047 8.59064 71.408 8.64487 71.1316 8.75766C70.8553 8.87045 70.6054 9.03933 70.3977 9.25364C70.1874 9.45975 70.0207 9.70596 69.9073 9.9777C69.7939 10.2494 69.7363 10.5412 69.7377 10.8356V20.7533H66.5645Z" fill="white"/>
<path d="M86.6613 15.9792L89.3946 17.5004C87.4694 19.9217 85.1448 21.1401 82.4209 21.1557C80.2417 21.2198 78.1243 20.4266 76.5236 18.9466C75.7405 18.2249 75.122 17.343 74.7101 16.3609C74.2983 15.3789 74.1026 14.3196 74.1366 13.2553C74.1033 12.1916 74.2993 11.1333 74.7111 10.1521C75.123 9.17092 75.7411 8.28981 76.5236 7.5686C78.1267 6.09699 80.241 5.30938 82.4162 5.3735C84.2938 5.37976 86.099 6.09915 87.4663 7.38607C89.2885 8.99923 90.1981 11.1382 90.195 13.8029V14.3926H77.7358C77.7704 14.9395 77.921 15.4727 78.1776 15.9569C78.4343 16.4411 78.791 16.8651 79.2242 17.2008C80.0914 17.9292 81.1901 18.3242 82.3226 18.3147C84.0605 18.3085 85.5068 17.53 86.6613 15.9792ZM77.7358 11.7014H86.4132C85.7112 9.35494 84.2337 8.18173 81.9809 8.18173C80.9839 8.15287 80.0117 8.49473 79.2522 9.14121C78.4892 9.81313 77.9584 10.7093 77.7358 11.7014Z" fill="white"/>
<path d="M91.333 18.5254L93.5421 16.2929C94.1308 16.9755 94.8591 17.5239 95.6778 17.901C96.4965 18.278 97.3867 18.475 98.288 18.4786C98.9374 18.4809 99.5784 18.3319 100.16 18.0433C100.886 17.697 101.251 17.2102 101.251 16.5924C101.251 15.6844 100.588 15.1072 99.2616 14.8607L97.4362 14.5096C96.1713 14.3216 94.9468 13.9229 93.8136 13.3302C93.2632 13.0241 92.8073 12.573 92.4954 12.0259C92.1835 11.4788 92.0275 10.8566 92.0444 10.2271C92.0274 9.50945 92.1897 8.7989 92.5166 8.1598C92.8435 7.52071 93.3247 6.97326 93.9166 6.56704C95.0884 5.73664 96.5019 5.31702 97.937 5.37355C100.093 5.4076 102.183 6.12543 103.904 7.42355L102.032 9.68885C100.931 8.661 99.4944 8.06593 97.9885 8.01328C97.3609 8.00504 96.7412 8.15472 96.1866 8.44855C95.9025 8.57228 95.6604 8.77554 95.4893 9.03382C95.3182 9.2921 95.2255 9.59436 95.2224 9.90415C95.2224 10.7139 95.8823 11.2381 97.2069 11.4861L100.483 12.1086C103.129 12.6047 104.452 13.9371 104.452 16.1056C104.471 16.861 104.295 17.6086 103.942 18.2765C103.589 18.9445 103.07 19.5105 102.435 19.9202C101.15 20.7682 99.635 21.1997 98.0961 21.1558C95.5961 21.1348 93.1903 20.1991 91.333 18.5254Z" fill="white"/>
<path d="M105.022 18.5254L107.232 16.2929C107.817 16.9757 108.542 17.5254 109.357 17.9048C110.172 18.2842 111.059 18.4847 111.959 18.4927C112.608 18.495 113.249 18.346 113.831 18.0574C114.556 17.7111 114.921 17.2243 114.921 16.6065C114.921 15.6985 114.257 15.1228 112.937 14.8747L111.107 14.5237C109.848 14.3292 108.63 13.9259 107.503 13.3302C106.954 13.0231 106.499 12.5716 106.188 12.0247C105.877 11.4777 105.722 10.8561 105.739 10.2271C105.722 9.50949 105.884 8.79894 106.211 8.15984C106.538 7.52075 107.019 6.9733 107.611 6.56708C108.781 5.73767 110.193 5.31811 111.626 5.37359C113.78 5.41736 115.865 6.14331 117.58 7.44699L115.745 9.71229C114.642 8.68588 113.207 8.09105 111.701 8.03672C111.072 8.02769 110.451 8.17739 109.895 8.47199C109.611 8.59668 109.37 8.80018 109.199 9.05824C109.028 9.31631 108.935 9.61807 108.931 9.92759C108.931 10.7373 109.591 11.2615 110.915 11.5096L114.191 12.132C116.837 12.6282 118.16 13.9605 118.16 16.1291C118.18 16.8841 118.005 17.6315 117.653 18.2995C117.3 18.9676 116.782 19.5337 116.148 19.9436C114.862 20.7926 113.345 21.2241 111.804 21.1792C109.295 21.1563 106.881 20.2119 105.022 18.5254Z" fill="white"/>
<path d="M17.4199 6.62324C16.8576 6.62913 16.3065 6.46608 15.8379 6.1552V20.7533H19.0299V6.12244C18.5563 6.44845 17.9949 6.62308 17.4199 6.62324Z" fill="white"/>
<mask id="mask0_242_775" style="mask-type:luminance" maskUnits="userSpaceOnUse" x="14" y="4" width="5" height="2">
<path d="M18.0615 4.84001C17.1183 4.54598 16.112 4.52005 15.155 4.76512L14.5605 5.64503C15.6269 5.04836 16.8416 4.76904 18.0615 4.84001Z" fill="white"/>
</mask>
<g mask="url(#mask0_242_775)">
<path d="M18.0615 4.51239H14.5605V5.64504H18.0615V4.51239Z" fill="url(#paint0_linear_242_775)"/>
</g>
<mask id="mask1_242_775" style="mask-type:luminance" maskUnits="userSpaceOnUse" x="15" y="3" width="6" height="3">
<path d="M15.3008 4.54516C16.2091 4.17332 17.2029 4.06089 18.1713 4.22037C19.1398 4.37986 20.045 4.805 20.7862 5.44847C20.248 4.73086 19.5359 4.16221 18.717 3.79616C17.8981 3.43011 16.9994 3.27875 16.1058 3.35634L15.3008 4.54516Z" fill="white"/>
</mask>
<g mask="url(#mask1_242_775)">
<path d="M20.7862 3.21588H15.3008V5.44842H20.7862V3.21588Z" fill="url(#paint1_linear_242_775)"/>
</g>
<mask id="mask2_242_775" style="mask-type:luminance" maskUnits="userSpaceOnUse" x="16" y="1" width="4" height="4">
<path d="M17.0182 2.67753C18.0372 2.88065 18.9782 3.36735 19.7328 4.08164C19.0762 3.05239 18.3653 2.05875 17.6032 1.10492L17.0884 1.86314L16.9854 2.01291C16.7655 2.39202 16.4659 2.5652 17.0182 2.67753Z" fill="white"/>
</mask>
<g mask="url(#mask2_242_775)">
<path d="M19.7327 1.10489H16.4658V4.08161H19.7327V1.10489Z" fill="url(#paint2_linear_242_775)"/>
</g>
<defs>
<linearGradient id="paint0_linear_242_775" x1="18.6512" y1="4.72301" x2="14.5465" y2="5.35018" gradientUnits="userSpaceOnUse">
<stop stop-color="white"/>
<stop offset="1" stop-color="white"/>
</linearGradient>
<linearGradient id="paint1_linear_242_775" x1="21.7035" y1="3.59967" x2="15.268" y2="4.89146" gradientUnits="userSpaceOnUse">
<stop stop-color="white"/>
<stop offset="1" stop-color="white"/>
</linearGradient>
<linearGradient id="paint2_linear_242_775" x1="20.1306" y1="1.40911" x2="16.8356" y2="3.33275" gradientUnits="userSpaceOnUse">
<stop stop-color="white"/>
<stop offset="1" stop-color="white"/>
</linearGradient>
</defs>
</svg>
