<svg width="28" height="26" viewBox="0 0 28 26" fill="none" xmlns="http://www.w3.org/2000/svg">
<g clip-path="url(#clip0_241_10890)">
<path d="M27.1557 9.40397L27.1577 0.758983L23.6847 4.1927L23.2958 3.80812C20.8124 1.35235 17.5106 0 13.998 0C6.74787 0 0.849609 5.83157 0.849609 12.9997C0.849609 20.1679 6.74787 25.9995 13.998 25.9995C21.2482 25.9995 27.1464 20.1679 27.1464 12.9997H24.6014C24.6014 18.7805 19.8444 23.4838 13.9975 23.4838C8.15062 23.4838 3.39461 18.7805 3.39461 12.9997C3.39461 7.21898 8.15114 2.51623 13.998 2.51623C16.8302 2.51623 19.4934 3.60695 21.4958 5.58721L21.8848 5.97179L18.4123 9.40499L27.1557 9.40397Z" fill="#BDBDBD"/>
<path d="M9.76172 18H10.7812V9.54492H9.75L7.5 11.1621V12.2754L9.73828 10.6641H9.76172V18ZM15.8848 18.1406C17.8535 18.1406 18.9902 16.4355 18.9902 13.7637C18.9902 11.1094 17.8477 9.4043 15.8848 9.4043C13.9219 9.4043 12.7676 11.1211 12.7676 13.7695C12.7676 16.4414 13.9102 18.1406 15.8848 18.1406ZM15.8848 17.2207C14.5605 17.2207 13.8281 15.873 13.8281 13.7637C13.8281 11.7012 14.5781 10.3301 15.8848 10.3301C17.1914 10.3301 17.9297 11.6895 17.9297 13.7695C17.9297 15.8789 17.2031 17.2207 15.8848 17.2207Z" fill="white"/>
</g>
<defs>
<clipPath id="clip0_241_10890">
<rect width="26.3081" height="26" fill="white" transform="translate(0.849609)"/>
</clipPath>
</defs>
</svg>
