<svg width="28" height="26" viewBox="0 0 28 26" fill="none" xmlns="http://www.w3.org/2000/svg">
<g clip-path="url(#clip0_241_10882)">
<path d="M0.975193 9.40397L0.973137 0.758983L4.44612 4.1927L4.83509 3.80812C7.31843 1.35235 10.6203 0 14.1328 0C21.383 0 27.2812 5.83157 27.2812 12.9997C27.2812 20.1679 21.383 25.9995 14.1328 25.9995C6.8827 25.9995 0.984442 20.1679 0.984442 12.9997H3.52944C3.52944 18.7805 8.28648 23.4838 14.1334 23.4838C19.9802 23.4838 24.7362 18.7805 24.7362 12.9997C24.7362 7.21898 19.9797 2.51623 14.1328 2.51623C11.3006 2.51623 8.63743 3.60695 6.63503 5.58721L6.24606 5.97179L9.71853 9.40499L0.975193 9.40397Z" fill="#BDBDBD"/>
<path d="M9.88477 18H10.9043V9.54492H9.87305L7.62305 11.1621V12.2754L9.86133 10.6641H9.88477V18ZM16.0078 18.1406C17.9766 18.1406 19.1133 16.4355 19.1133 13.7637C19.1133 11.1094 17.9707 9.4043 16.0078 9.4043C14.0449 9.4043 12.8906 11.1211 12.8906 13.7695C12.8906 16.4414 14.0332 18.1406 16.0078 18.1406ZM16.0078 17.2207C14.6836 17.2207 13.9512 15.873 13.9512 13.7637C13.9512 11.7012 14.7012 10.3301 16.0078 10.3301C17.3145 10.3301 18.0527 11.6895 18.0527 13.7695C18.0527 15.8789 17.3262 17.2207 16.0078 17.2207Z" fill="white"/>
</g>
<defs>
<clipPath id="clip0_241_10882">
<rect width="26.3081" height="26" fill="white" transform="translate(0.972656)"/>
</clipPath>
</defs>
</svg>
