<svg width="19" height="17" viewBox="0 0 19 17" fill="none" xmlns="http://www.w3.org/2000/svg">
<path fill-rule="evenodd" clip-rule="evenodd" d="M16.1275 0.71875H2.87183V3.35927H16.1275V0.71875ZM17.4531 4.69013H1.54634C0.814626 4.69013 0.220776 5.28398 0.221436 6.01569V12.6383H2.87257V15.288C2.87257 16.021 3.46642 16.6148 4.19946 16.6148H14.8047C15.535 16.6148 16.1276 16.0231 16.1276 15.292V12.6383H18.7787V6.01039C18.7787 5.27802 18.1848 4.69013 17.4531 4.69013ZM17.4531 7.34125H16.1276V6.01569H17.4531V7.34125ZM14.802 15.2946H4.19747V8.66155H14.802V15.2946ZM5.52308 9.99235H13.4765V11.318H5.52308V9.99235ZM13.4765 12.6434H5.52308V13.969H13.4765V12.6434Z" fill="#868686"/>
</svg>
