<svg width="39" height="61" viewBox="0 0 39 61" fill="none" xmlns="http://www.w3.org/2000/svg">
<path d="M12.6212 41.0961L12.5806 38.686C12.1748 32.7854 14.2851 29.0041 19.8855 25.6383C25.1207 22.4387 26.7034 20.361 26.7034 16.4966V16.455C26.7034 12.4659 23.5786 9.64033 18.9927 9.64033C14.3257 9.64033 11.282 12.7568 11.0385 17.0368L10.9979 17.3692H0V16.9537C0.324662 7.18869 7.26431 0 19.7232 0C31.2893 0 39 6.5654 39 16.0811V16.1226C39 22.3556 36.0375 26.7187 30.3153 30.1676C24.9178 33.3672 23.4162 35.4448 23.4162 39.3924V41.0961H12.6212ZM18.1811 61C14.5286 61 11.5661 58.1328 11.5661 54.4762C11.5661 50.8195 14.5286 47.9523 18.1811 47.9523C21.8741 47.9523 24.8366 50.8195 24.8366 54.4762C24.8366 58.1328 21.8741 61 18.1811 61Z" fill="#FFEFD7"/>
</svg>
