<svg width="17" height="16" viewBox="0 0 17 16" fill="none" xmlns="http://www.w3.org/2000/svg">
<path d="M15.6813 2.65869H13.624C13.4921 2.65871 13.3633 2.69783 13.2537 2.77109C13.144 2.84434 13.0586 2.94845 13.0082 3.07025C12.9577 3.19205 12.9445 3.32607 12.9702 3.45537C12.9959 3.58468 13.0594 3.70345 13.1526 3.79669L13.8766 4.52069L11.486 6.91069C11.3589 7.03208 11.19 7.09983 11.0143 7.09983C10.8386 7.09983 10.6696 7.03208 10.5426 6.91069L10.4293 6.79669C10.0484 6.43273 9.5418 6.22964 9.01496 6.22964C8.48811 6.22964 7.98155 6.43273 7.60062 6.79669L4.20062 10.1967C4.07535 10.3223 4.00512 10.4926 4.00537 10.67C4.00562 10.8474 4.07633 11.0174 4.20196 11.1427C4.32758 11.268 4.49782 11.3382 4.67523 11.3379C4.85264 11.3377 5.02269 11.267 5.14796 11.1414L8.54796 7.74135C8.6749 7.6198 8.84387 7.55195 9.01962 7.55195C9.19538 7.55195 9.36435 7.6198 9.49129 7.74135L9.60462 7.85535C9.9857 8.219 10.4922 8.42189 11.019 8.42189C11.5457 8.42189 12.0522 8.219 12.4333 7.85535L14.824 5.46469L15.548 6.18869C15.6415 6.28039 15.76 6.34249 15.8886 6.36725C16.0173 6.39201 16.1503 6.37832 16.2712 6.3279C16.3922 6.27748 16.4955 6.19255 16.5684 6.08373C16.6414 5.97491 16.6806 5.84701 16.6813 5.71602V3.65869C16.6813 3.39347 16.5759 3.13912 16.3884 2.95158C16.2009 2.76404 15.9465 2.65869 15.6813 2.65869Z" fill="#1EAF8A"/>
<path d="M16.0147 14.6587H4.01473C3.4843 14.6587 2.97559 14.4479 2.60052 14.0729C2.22544 13.6978 2.01473 13.1891 2.01473 12.6587V0.674662C2.01473 0.497851 1.94449 0.328282 1.81947 0.203258C1.69444 0.0782335 1.52487 0.00799561 1.34806 0.00799561C1.17125 0.00799561 1.00168 0.0782335 0.876659 0.203258C0.751634 0.328282 0.681396 0.497851 0.681396 0.674662V12.6587C0.682455 13.5424 1.03398 14.3896 1.65888 15.0145C2.28377 15.6394 3.131 15.9909 4.01473 15.992H16.0147C16.1915 15.992 16.3611 15.9218 16.4861 15.7967C16.6112 15.6717 16.6814 15.5021 16.6814 15.3253C16.6814 15.1485 16.6112 14.9789 16.4861 14.8539C16.3611 14.7289 16.1915 14.6587 16.0147 14.6587Z" fill="#1EAF8A"/>
</svg>
