<svg width="17" height="19" viewBox="0 0 17 19" fill="none" xmlns="http://www.w3.org/2000/svg">
<path d="M15.75 9.8105L7.9395 2H1.5V0.5H8.25C8.4489 0.500042 8.63963 0.579088 8.78025 0.71975L16.8105 8.75L15.75 9.8105Z" fill="#868686"/>
<path d="M14.3407 10.7802L7.28025 3.71975C7.13963 3.57909 6.9489 3.50004 6.75 3.5H0.75C0.551088 3.5 0.360322 3.57902 0.21967 3.71967C0.0790176 3.86032 0 4.05109 0 4.25V10.25C4.24781e-05 10.4489 0.079088 10.6396 0.21975 10.7802L7.28025 17.8407C7.48919 18.0497 7.73724 18.2155 8.01025 18.3286C8.28326 18.4417 8.57587 18.4999 8.87138 18.4999C9.16688 18.4999 9.45949 18.4417 9.7325 18.3286C10.0055 18.2155 10.2536 18.0497 10.4625 17.8407L14.3407 13.9625C14.5497 13.7536 14.7155 13.5055 14.8286 13.2325C14.9417 12.9595 14.9999 12.6669 14.9999 12.3714C14.9999 12.0759 14.9417 11.7833 14.8286 11.5102C14.7155 11.2372 14.5497 10.9892 14.3407 10.7802ZM4.5 9.5C4.20333 9.5 3.91332 9.41203 3.66664 9.2472C3.41997 9.08238 3.22771 8.84811 3.11418 8.57402C3.00065 8.29993 2.97094 7.99834 3.02882 7.70736C3.0867 7.41639 3.22956 7.14912 3.43934 6.93934C3.64912 6.72956 3.91639 6.5867 4.20736 6.52882C4.49834 6.47094 4.79994 6.50065 5.07403 6.61418C5.34811 6.72771 5.58238 6.91997 5.7472 7.16664C5.91203 7.41332 6 7.70333 6 8C6 8.39782 5.84196 8.77936 5.56066 9.06066C5.27936 9.34196 4.89782 9.5 4.5 9.5Z" fill="#868686"/>
</svg>
