<svg width="14" height="17" viewBox="0 0 14 17" fill="none" xmlns="http://www.w3.org/2000/svg">
<path d="M12.2566 3.45456C12.1475 3.39822 12.0414 3.33645 11.9386 3.26948C11.6395 3.07177 11.3653 2.83881 11.1219 2.57561C10.5128 1.87871 10.2853 1.17171 10.2015 0.676712H10.2049C10.1349 0.265839 10.1638 0 10.1682 0H7.39407V10.7271C7.39407 10.8711 7.39407 11.0135 7.38801 11.1541C7.38801 11.1716 7.38633 11.1878 7.38532 11.2066C7.38532 11.2144 7.38532 11.2224 7.38364 11.2305C7.38364 11.2325 7.38364 11.2346 7.38364 11.2366C7.35439 11.6215 7.23101 11.9933 7.02435 12.3193C6.81769 12.6453 6.53408 12.9155 6.19846 13.1062C5.84868 13.3052 5.45307 13.4096 5.05064 13.4091C3.75813 13.4091 2.71059 12.3551 2.71059 11.0535C2.71059 9.75192 3.75813 8.69799 5.05064 8.69799C5.29531 8.69776 5.53847 8.73626 5.7711 8.81206L5.77447 5.98744C5.06827 5.89621 4.35082 5.95234 3.6674 6.15227C2.98397 6.3522 2.3494 6.6916 1.80371 7.14905C1.32555 7.5645 0.923569 8.06021 0.615842 8.61386C0.498738 8.81576 0.056907 9.62708 0.0034027 10.9438C-0.0302478 11.6912 0.194201 12.4655 0.30121 12.7855V12.7922C0.368511 12.9807 0.629302 13.6237 1.05431 14.1659C1.39702 14.6007 1.80192 14.9827 2.25597 15.2995V15.2928L2.2627 15.2995C3.60569 16.2121 5.09473 16.1522 5.09473 16.1522C5.35249 16.1418 6.21596 16.1522 7.19654 15.6875C8.28412 15.1723 8.90329 14.4048 8.90329 14.4048C9.29885 13.9461 9.61338 13.4235 9.83339 12.8592C10.0844 12.1993 10.1682 11.4079 10.1682 11.0915V5.40057C10.2019 5.42076 10.6501 5.71722 10.6501 5.71722C10.6501 5.71722 11.2958 6.13112 12.3033 6.40067C13.0262 6.59247 14 6.63285 14 6.63285V3.8789C13.6588 3.91591 12.9659 3.80823 12.2566 3.45456Z" fill="#737373"/>
</svg>
