<svg width="13" height="22" viewBox="0 0 13 22" fill="none" xmlns="http://www.w3.org/2000/svg">
<path d="M8.49682 4.14287C9.19406 4.14355 9.86254 4.42082 10.3556 4.91384C10.8486 5.40686 11.1259 6.07535 11.1265 6.77258C11.1265 6.99991 11.2168 7.21793 11.3776 7.37867C11.5383 7.53942 11.7563 7.62972 11.9837 7.62972C12.211 7.62972 12.429 7.53942 12.5898 7.37867C12.7505 7.21793 12.8408 6.99991 12.8408 6.77258V6.71429C12.8408 6.69801 12.8408 6.68344 12.8408 6.66715C12.8122 5.53378 12.3421 4.45639 11.5306 3.66463C10.7192 2.87286 9.63056 2.42934 8.49682 2.42858H7.69796V1.57144C7.69796 1.34411 7.60766 1.12609 7.44691 0.965346C7.28617 0.8046 7.06815 0.714294 6.84082 0.714294C6.61349 0.714294 6.39547 0.8046 6.23473 0.965346C6.07398 1.12609 5.98368 1.34411 5.98368 1.57144V2.42858H5.18482C4.15395 2.42968 3.15707 2.79735 2.37236 3.46588C1.58765 4.1344 1.06626 5.0602 0.90138 6.0778C0.736503 7.0954 0.938887 8.13847 1.47236 9.02057C2.00583 9.90268 2.83561 10.5663 3.81339 10.8929L5.98368 11.6172V17.8572H5.18482C4.48759 17.8565 3.8191 17.5792 3.32608 17.0862C2.83306 16.5932 2.55579 15.9247 2.55511 15.2274C2.55511 15.0001 2.4648 14.7821 2.30405 14.6213C2.14331 14.4606 1.92529 14.3703 1.69796 14.3703C1.47063 14.3703 1.25262 14.4606 1.09187 14.6213C0.931126 14.7821 0.84082 15.0001 0.84082 15.2274V15.2857C0.84082 15.302 0.84082 15.3166 0.84082 15.3329C0.869426 16.4662 1.33956 17.5436 2.15102 18.3354C2.96248 19.1272 4.05108 19.5707 5.18482 19.5714H5.98368V20.4286C5.98368 20.6559 6.07398 20.8739 6.23473 21.0347C6.39547 21.1954 6.61349 21.2857 6.84082 21.2857C7.06815 21.2857 7.28617 21.1954 7.44691 21.0347C7.60766 20.8739 7.69796 20.6559 7.69796 20.4286V19.5714H8.49682C9.52769 19.5703 10.5246 19.2027 11.3093 18.5341C12.094 17.8656 12.6154 16.9398 12.7803 15.9222C12.9451 14.9046 12.7428 13.8615 12.2093 12.9794C11.6758 12.0973 10.846 11.4337 9.86825 11.1072L7.69796 10.3829V4.14287H8.49682ZM9.32825 12.7323C9.9209 12.9295 10.424 13.3313 10.7474 13.8656C11.0709 14.4 11.1936 15.032 11.0936 15.6486C10.9935 16.2651 10.6773 16.8259 10.2015 17.2306C9.72573 17.6353 9.12143 17.8574 8.49682 17.8572H7.69796V12.1889L9.32825 12.7323ZM5.98368 9.81115L4.35511 9.26772C3.7626 9.07052 3.2596 8.6689 2.93614 8.13474C2.61267 7.60058 2.48985 6.96874 2.58965 6.3523C2.68945 5.73586 3.00536 5.17506 3.48085 4.77025C3.95633 4.36544 4.56035 4.14304 5.18482 4.14287H5.98368V9.81115Z" fill="#439BDC"/>
</svg>
