<svg width="20" height="20" viewBox="0 0 20 20" fill="none" xmlns="http://www.w3.org/2000/svg">
<path d="M12.0829 10.8334C11.8357 10.8334 11.594 10.7601 11.3884 10.6227C11.1829 10.4854 11.0227 10.2901 10.928 10.0617C10.8334 9.83331 10.8087 9.58196 10.8569 9.33948C10.9051 9.09699 11.0242 8.87425 11.199 8.69942C11.3738 8.5246 11.5966 8.40554 11.8391 8.35731C12.0816 8.30907 12.3329 8.33383 12.5613 8.42844C12.7897 8.52306 12.985 8.68328 13.1223 8.88885C13.2597 9.09443 13.333 9.33611 13.333 9.58335C13.333 9.91489 13.2013 10.2328 12.9669 10.4673C12.7324 10.7017 12.4145 10.8334 12.0829 10.8334ZM19.9375 15.1203C20.0415 15.7188 20.0134 16.3329 19.8551 16.9194C19.6968 17.5059 19.4122 18.0507 19.0211 18.5157C18.6301 18.9806 18.1422 19.3544 17.5915 19.6109C17.0408 19.8674 16.4406 20.0004 15.8331 20.0005H12.4996C12.2786 20.0005 12.0666 19.9127 11.9103 19.7565C11.7541 19.6002 11.6663 19.3882 11.6663 19.1672V17.2812C11.1222 17.4247 10.5621 17.4983 9.99951 17.5004C9.43655 17.4975 8.87633 17.4219 8.33276 17.2754V19.1672C8.33276 19.3882 8.24496 19.6002 8.08867 19.7565C7.93238 19.9127 7.72041 20.0005 7.49938 20.0005H4.16589C3.55838 20.0004 2.95825 19.8674 2.40755 19.6109C1.85685 19.3544 1.3689 18.9806 0.977877 18.5157C0.586857 18.0507 0.302229 17.5059 0.143936 16.9194C-0.014357 16.3329 -0.0424864 15.7188 0.0615186 15.1203L0.311531 13.6702C0.394667 13.1879 0.620375 12.7416 0.959549 12.3888C1.29872 12.036 1.73581 11.7929 2.21444 11.6909C2.69308 11.5888 3.19131 11.6325 3.6449 11.8162C4.09848 12 4.48662 12.3154 4.75925 12.7218C5.81263 14.2703 7.84023 15.8337 9.99951 15.8337C12.608 15.8337 15.1781 13.5177 15.9415 11.3534C16.0027 11.1908 16.1119 11.0505 16.2546 10.9513C16.3974 10.852 16.5668 10.7984 16.7407 10.7976L17.1007 10.8034C17.2621 10.8054 17.4222 10.7753 17.5718 10.7148C17.7214 10.6544 17.8576 10.5648 17.9722 10.4513C18.0869 10.3377 18.1779 10.2026 18.2399 10.0536C18.3019 9.90456 18.3336 9.74472 18.3333 9.58335C18.333 9.29106 18.2302 9.00811 18.043 8.78369C17.8557 8.55927 17.5957 8.40757 17.3082 8.35496C17.1309 8.32279 16.9688 8.23402 16.8462 8.10195C16.7236 7.96988 16.6471 7.80163 16.6282 7.62242C16.4569 5.98508 15.6842 4.46953 14.4596 3.36922C13.235 2.2689 11.6458 1.6621 9.99951 1.66629C5.35178 1.66629 4.07588 4.68977 3.05083 7.11989C2.86416 7.55908 2.68831 7.97827 2.49914 8.35579C4.17488 8.26718 5.80888 7.80076 7.27889 6.99143C8.7489 6.1821 10.0169 5.05082 10.9879 3.68222C11.0515 3.59314 11.132 3.51745 11.2248 3.45948C11.3177 3.40151 11.421 3.36239 11.529 3.34436C11.6369 3.32633 11.7474 3.32974 11.854 3.35439C11.9606 3.37904 12.0614 3.42446 12.1504 3.48804C12.2395 3.55163 12.3152 3.63214 12.3732 3.72497C12.4312 3.81781 12.4703 3.92115 12.4883 4.02911C12.5063 4.13706 12.5029 4.24751 12.4783 4.35415C12.4536 4.46078 12.4082 4.56152 12.3446 4.6506C11.2629 6.18415 9.85169 7.45614 8.21442 8.37329C8.46399 8.43457 8.68862 8.57127 8.85771 8.76479C9.0268 8.95832 9.13214 9.19925 9.15938 9.45479C9.18662 9.71033 9.13444 9.96805 9.00995 10.1929C8.88545 10.4177 8.69469 10.5987 8.46365 10.7112C8.2326 10.8237 7.97249 10.8623 7.71873 10.8216C7.46498 10.781 7.22991 10.6632 7.04554 10.4841C6.86117 10.3051 6.73645 10.0736 6.68837 9.82117C6.64029 9.56872 6.67119 9.30759 6.77685 9.07333C4.86077 9.84919 2.78899 10.1632 0.729051 9.99004C0.557353 9.96703 0.397093 9.89108 0.27056 9.77276C0.144027 9.65444 0.0575103 9.49963 0.0230429 9.32986C-0.0114245 9.16009 0.00787033 8.9838 0.0782441 8.8255C0.148618 8.66721 0.266572 8.53477 0.415703 8.44663C0.919504 7.87502 1.2944 7.20169 1.51492 6.47236C2.60248 3.89473 4.24922 -0.000464941 9.99951 -0.000464941C11.9616 -0.00511307 13.862 0.68461 15.3644 1.9466C16.8668 3.2086 17.8742 4.96146 18.2082 6.89488C18.7386 7.1166 19.1916 7.49006 19.5104 7.96838C19.8291 8.4467 19.9995 9.00854 20 9.58335C19.9986 10.2759 19.7457 10.9443 19.2883 11.4643C19.2941 11.4859 19.3091 11.5034 19.3133 11.5268L19.9375 15.1203ZM6.66601 16.617C5.34782 15.9106 4.22078 14.8948 3.38168 13.6569C3.31027 13.549 3.21339 13.4603 3.09959 13.3986C2.98579 13.337 2.85856 13.3044 2.72915 13.3035H2.71498C2.53253 13.3074 2.35706 13.3745 2.21859 13.4933C2.08011 13.6122 1.98722 13.7755 1.95578 13.9552L1.70577 15.4045C1.64321 15.7635 1.65989 16.1318 1.75463 16.4837C1.84938 16.8356 2.0199 17.1625 2.25426 17.4415C2.48862 17.7206 2.78114 17.945 3.11135 18.0992C3.44157 18.2533 3.80148 18.3334 4.16589 18.3338H6.66601V16.617ZM18.2957 15.4045L17.7724 12.3935C17.6139 12.4313 17.4525 12.4553 17.2899 12.4652C16.4491 14.2393 15.0625 15.6978 13.333 16.627V18.3338H15.8331C16.1977 18.3337 16.5578 18.2539 16.8882 18.1C17.2187 17.9461 17.5115 17.7218 17.7461 17.4428C17.9807 17.1638 18.1515 16.8368 18.2464 16.4849C18.3414 16.1329 18.3582 15.7645 18.2957 15.4053V15.4045Z" fill="white"/>
</svg>
