<svg width="18" height="18" viewBox="0 0 18 18" fill="none" xmlns="http://www.w3.org/2000/svg">
<g clip-path="url(#clip0_68_6289)">
<path d="M9.00195 15C10.5927 14.9982 12.1178 14.3655 13.2426 13.2407C14.3675 12.1158 15.0002 10.5908 15.002 9V6C15.002 4.4087 14.3698 2.88258 13.2446 1.75736C12.1194 0.632141 10.5933 0 9.00195 0C7.41065 0 5.88453 0.632141 4.75931 1.75736C3.63409 2.88258 3.00195 4.4087 3.00195 6V9C3.00374 10.5908 3.63645 12.1158 4.76129 13.2407C5.88612 14.3655 7.4112 14.9982 9.00195 15ZM9.00195 1.5C10.0644 1.50197 11.0919 1.8794 11.903 2.5656C12.7141 3.2518 13.2565 4.20259 13.4345 5.25H11.252C11.053 5.25 10.8623 5.32902 10.7216 5.46967C10.581 5.61032 10.502 5.80109 10.502 6C10.502 6.19891 10.581 6.38968 10.7216 6.53033C10.8623 6.67098 11.053 6.75 11.252 6.75H13.502V8.25H11.252C11.053 8.25 10.8623 8.32902 10.7216 8.46967C10.581 8.61032 10.502 8.80109 10.502 9C10.502 9.19891 10.581 9.38968 10.7216 9.53033C10.8623 9.67098 11.053 9.75 11.252 9.75H13.4345C13.2582 10.7981 12.7162 11.7499 11.9047 12.4363C11.0932 13.1227 10.0648 13.4993 9.00195 13.4993C7.93911 13.4993 6.91066 13.1227 6.09919 12.4363C5.28771 11.7499 4.74573 10.7981 4.56945 9.75H6.75195C6.95087 9.75 7.14163 9.67098 7.28228 9.53033C7.42294 9.38968 7.50195 9.19891 7.50195 9C7.50195 8.80109 7.42294 8.61032 7.28228 8.46967C7.14163 8.32902 6.95087 8.25 6.75195 8.25H4.50195V6.75H6.75195C6.95087 6.75 7.14163 6.67098 7.28228 6.53033C7.42294 6.38968 7.50195 6.19891 7.50195 6C7.50195 5.80109 7.42294 5.61032 7.28228 5.46967C7.14163 5.32902 6.95087 5.25 6.75195 5.25H4.56945C4.74741 4.20259 5.28984 3.2518 6.10093 2.5656C6.91202 1.8794 7.93954 1.50197 9.00195 1.5Z" fill="#999999"/>
<path d="M17.252 9C17.053 9 16.8623 9.07902 16.7216 9.21967C16.581 9.36032 16.502 9.55109 16.502 9.75C16.5 11.5396 15.7882 13.2553 14.5227 14.5208C13.2573 15.7862 11.5416 16.498 9.75195 16.5H8.25195C6.46241 16.4978 4.74679 15.786 3.48139 14.5206C2.216 13.2552 1.50414 11.5395 1.50195 9.75C1.50195 9.55109 1.42294 9.36032 1.28228 9.21967C1.14163 9.07902 0.950866 9 0.751953 9C0.553041 9 0.362275 9.07902 0.221623 9.21967C0.0809708 9.36032 0.00195313 9.55109 0.00195312 9.75C0.00453348 11.9372 0.874556 14.0342 2.42117 15.5808C3.96779 17.1274 6.06471 17.9974 8.25195 18H9.75195C11.9392 17.9974 14.0361 17.1274 15.5827 15.5808C17.1293 14.0342 17.9994 11.9372 18.002 9.75C18.002 9.55109 17.9229 9.36032 17.7823 9.21967C17.6416 9.07902 17.4509 9 17.252 9Z" fill="#999999"/>
</g>
<defs>
<clipPath id="clip0_68_6289">
<rect width="18" height="18" fill="white" transform="translate(0.00195312)"/>
</clipPath>
</defs>
</svg>
