<svg width="23" height="22" viewBox="0 0 23 22" fill="none" xmlns="http://www.w3.org/2000/svg">
<path d="M13.1983 0.575163C12.9398 0.450792 12.6362 0.483916 12.413 0.665161L5.19493 6.50124H1.74576C0.928303 6.50124 0.261719 7.17434 0.261719 8.00119V14.001C0.261719 14.8291 0.928303 15.501 1.74576 15.501H5.19493L12.4117 21.337C12.5465 21.4452 12.7116 21.5008 12.8761 21.5008C12.9862 21.5008 13.0956 21.4752 13.1983 21.4258C13.4549 21.3014 13.6181 21.0383 13.6181 20.7508V1.25139C13.6181 0.963277 13.4549 0.70141 13.1983 0.575163Z" fill="#999999"/>
<path d="M17.3743 5.69682C17.0819 5.40557 16.6131 5.40995 16.3256 5.70244C16.0374 5.99806 16.0405 6.47179 16.3312 6.76429C17.4535 7.883 18.0706 9.38796 18.0706 11.0004C18.0706 12.6129 17.4535 14.1172 16.3312 15.2359C16.0405 15.5253 16.0374 16.0009 16.3256 16.2965C16.4709 16.4453 16.6626 16.5184 16.8524 16.5184C17.041 16.5184 17.229 16.4465 17.375 16.3009C18.7817 14.9022 19.5547 13.0179 19.5547 11.0004C19.5547 8.98297 18.7817 7.09928 17.3743 5.69682Z" fill="#999999"/>
<path d="M19.4681 3.58295C19.1756 3.29046 18.7069 3.29359 18.4175 3.58733C18.1294 3.88107 18.1325 4.35668 18.4219 4.64792C20.1094 6.3385 21.0381 8.59468 21.0381 11.0002C21.0381 13.4058 20.1094 15.6607 18.4219 17.3507C18.1325 17.6432 18.1294 18.1188 18.4175 18.4125C18.5641 18.5594 18.7546 18.6331 18.9444 18.6331C19.133 18.6331 19.3228 18.5613 19.4681 18.4156C21.4388 16.4438 22.5222 13.8095 22.5222 11.0002C22.5222 8.19094 21.4388 5.55727 19.4681 3.58295Z" fill="#999999"/>
</svg>
