<svg width="16" height="11" viewBox="0 0 16 11" fill="none" xmlns="http://www.w3.org/2000/svg">
<path d="M15.6657 1.66897C15.4817 1.01203 14.9395 0.494639 14.2511 0.319056C13.0033 0 8 0 8 0C8 0 2.99669 0 1.7489 0.319056C1.06052 0.494667 0.518349 1.01203 0.334336 1.66897C0 2.85972 0 5.34411 0 5.34411C0 5.34411 0 7.8285 0.334336 9.01925C0.518349 9.67619 1.06052 10.172 1.7489 10.3476C2.99669 10.6667 8 10.6667 8 10.6667C8 10.6667 13.0033 10.6667 14.2511 10.3476C14.9395 10.172 15.4817 9.67619 15.6657 9.01925C16 7.8285 16 5.34411 16 5.34411C16 5.34411 16 2.85972 15.6657 1.66897ZM6.36362 7.59975V3.08847L10.5454 5.34417L6.36362 7.59975Z" fill="#fff"/>
</svg>
