<svg width="15" height="14" viewBox="0 0 15 14" fill="none" xmlns="http://www.w3.org/2000/svg">
<path d="M4.46181 13.9876C3.5855 13.9876 2.70595 14.0165 1.82965 13.9844C0.792827 13.9426 0 13.0727 0 12.0359C0 8.68797 0.00640463 5.34004 0 1.98884C0 0.842902 0.895546 0.0436463 1.92594 0.0147506C3.00448 -0.014145 4.08623 0.00832238 5.16798 0.00832238C5.18724 0.00832238 5.21291 -0.00131214 5.22253 0.0307819C5.21614 0.0885733 5.15834 0.0950094 5.12304 0.117469C4.48747 0.48982 3.90649 0.935994 3.41855 1.48812C2.61287 2.39972 2.05434 3.44617 1.86497 4.66273C1.53112 6.81017 2.202 8.63341 3.72031 10.1549C3.98994 10.4278 4.02524 10.6396 3.81017 11.0055C3.55017 11.4453 3.15536 11.7438 2.73485 12.0167C2.68992 12.0424 2.64496 12.0745 2.60004 12.1034C2.53261 12.1611 2.57434 12.19 2.63213 12.2157C2.64496 12.2446 2.66103 12.2703 2.68029 12.296C3.04941 12.6234 3.39929 12.9732 3.76204 13.3071C3.93316 13.4654 4.10117 13.627 4.266 13.7918C4.33339 13.8528 4.44574 13.872 4.46181 13.9876Z" fill="#737373"/>
<path d="M4.46181 13.9876C4.44574 13.8752 4.33337 13.8559 4.26597 13.7885C4.10226 13.6216 3.93213 13.4611 3.76201 13.3038C3.39927 12.97 3.04938 12.6201 2.68026 12.2927C2.661 12.267 2.64494 12.2413 2.63211 12.2124C3.45062 12.3729 4.24991 12.2638 5.03634 12.023C5.30277 11.9428 5.56919 11.8626 5.83883 11.7951C6.02179 11.747 6.21441 11.7566 6.39095 11.8208C8.42603 12.5206 10.4354 12.4564 12.4128 11.5897C13.2185 11.2334 13.9536 10.7326 14.5763 10.1067C14.6084 10.0746 14.6308 10.0264 14.6886 10.0232C14.7175 10.0682 14.7014 10.1163 14.7014 10.1645V12.0423C14.7079 13.1144 13.8476 13.9875 12.7755 13.9972H12.7595C11.6039 14.0036 10.4483 13.9972 9.2927 13.9972H4.65435C4.59036 13.9907 4.52612 13.9876 4.46181 13.9876Z" fill="#737373"/>
<path d="M4.96251 6.80369C5.44721 6.80369 5.90301 6.80046 6.35562 6.80369C6.60922 6.80689 6.74723 6.91282 6.77292 7.11506C6.80182 7.36862 6.65414 7.53876 6.37811 7.54196C5.85809 7.54839 5.34129 7.54519 4.82127 7.54519C4.67042 7.54519 4.52274 7.5516 4.3719 7.54196C4.18572 7.53233 4.00274 7.49384 3.91286 7.30122C3.823 7.10862 3.88719 6.93528 4.00918 6.77801C4.50351 6.14885 5.00104 5.51651 5.49857 4.88736C5.52746 4.84884 5.55636 4.81031 5.58526 4.77502C5.55313 4.72043 5.5082 4.74612 5.46967 4.74292C5.12302 4.73969 4.77314 4.74292 4.42646 4.73969C4.3462 4.73969 4.26597 4.73006 4.18892 4.71403C4.00595 4.6723 3.8936 4.48932 3.93533 4.30958C3.96422 4.1876 4.06054 4.08808 4.18249 4.05919C4.25954 4.03992 4.3398 4.03029 4.42002 4.03029C4.99141 4.02709 5.56599 4.02709 6.13735 4.03029C6.24006 4.02709 6.33958 4.03992 6.43907 4.06562C6.65737 4.13944 6.75046 4.34168 6.66378 4.55352C6.58675 4.73649 6.46477 4.89377 6.34278 5.05108C5.92383 5.58514 5.50334 6.11799 5.0813 6.64962C5.04597 6.69135 5.01387 6.73307 4.96251 6.80369Z" fill="#737373"/>
<path d="M8.68603 5.11527C8.76308 5.01575 8.84333 4.92266 8.97495 4.897C9.22851 4.84564 9.46605 5.00932 9.46924 5.26612C9.47888 5.90813 9.47568 6.5501 9.46924 7.19208C9.46924 7.35902 9.36013 7.50667 9.20285 7.55483C9.04234 7.61578 8.85937 7.56766 8.75345 7.42961C8.69888 7.36222 8.67642 7.34939 8.59937 7.41035C8.30727 7.64791 7.97666 7.68964 7.62034 7.57405C7.04899 7.38788 6.81465 6.94171 6.75046 6.39922C6.68304 5.8118 6.87884 5.31108 7.40527 5.00291C7.84184 4.74292 8.28481 4.76538 8.68603 5.11527ZM7.54971 6.28687C7.55615 6.42811 7.60108 6.56293 7.68453 6.67528C7.85788 6.90641 8.18849 6.95455 8.42282 6.7812C8.46135 6.75234 8.49665 6.71701 8.52875 6.67528C8.70852 6.43132 8.70852 6.03011 8.52875 5.78614C8.43886 5.66096 8.29765 5.58714 8.14677 5.5839C7.79368 5.56144 7.54651 5.8343 7.54971 6.28687ZM10.9105 6.30613C10.8848 5.48118 11.4273 4.86487 12.1977 4.8424C13.0162 4.81675 13.6133 5.36563 13.639 6.16812C13.6647 6.98024 13.1671 7.55483 12.3999 7.63185C11.5621 7.7153 10.8977 7.10862 10.9105 6.30613ZM11.7162 6.22911C11.7098 6.38959 11.758 6.5469 11.8542 6.67849C12.0308 6.90962 12.3614 6.95455 12.5925 6.7748C12.6278 6.74911 12.6567 6.71701 12.6856 6.68491C12.8718 6.44095 12.8718 6.03011 12.6888 5.78614C12.5989 5.66416 12.4577 5.58714 12.3069 5.5839C11.9602 5.56464 11.7162 5.82787 11.7162 6.22911ZM10.628 5.66736C10.628 6.16492 10.6312 6.66245 10.628 7.15998C10.6312 7.38788 10.4515 7.57728 10.2236 7.58369C10.1851 7.58369 10.1434 7.58049 10.1048 7.57086C9.94434 7.52913 9.82236 7.35901 9.82236 7.15679V4.60487C9.82236 4.45403 9.81913 4.30635 9.82236 4.1555C9.82556 3.90834 9.98284 3.74783 10.2204 3.74783C10.4643 3.74463 10.628 3.90511 10.628 4.16191C10.6312 4.66266 10.628 5.16663 10.628 5.66736Z" fill="#737373"/>
</svg>
